<?xml version="1.0" standalone="no"?>
<!DOCTYPE svg PUBLIC "-//W3C//DTD SVG 1.1//EN" "http://www.w3.org/Graphics/SVG/1.1/DTD/svg11.dtd" >
<!--
2013-9-30: Created.
-->
<svg>
<metadata>
Created by iconfont
</metadata>
<defs>

<font id="iconfont" horiz-adv-x="1024" >
  <font-face
    font-family="iconfont"
    font-weight="500"
    font-stretch="normal"
    units-per-em="1024"
    ascent="896"
    descent="-128"
  />
    <missing-glyph />
    
    <glyph glyph-name="x" unicode="x" horiz-adv-x="1001"
d="M281 543q-27 -1 -53 -1h-83q-18 0 -36.5 -6t-32.5 -18.5t-23 -32t-9 -45.5v-76h912v41q0 16 -0.5 30t-0.5 18q0 13 -5 29t-17 29.5t-31.5 22.5t-49.5 9h-133v-97h-438v97zM955 310v-52q0 -23 0.5 -52t0.5 -58t-10.5 -47.5t-26 -30t-33 -16t-31.5 -4.5q-14 -1 -29.5 -0.5
t-29.5 0.5h-32l-45 128h-439l-44 -128h-29h-34q-20 0 -45 1q-25 0 -41 9.5t-25.5 23t-13.5 29.5t-4 30v167h911zM163 247q-12 0 -21 -8.5t-9 -21.5t9 -21.5t21 -8.5q13 0 22 8.5t9 21.5t-9 21.5t-22 8.5zM316 123q-8 -26 -14 -48q-5 -19 -10.5 -37t-7.5 -25t-3 -15t1 -14.5
t9.5 -10.5t21.5 -4h37h67h81h80h64h36q23 0 34 12t2 38q-5 13 -9.5 30.5t-9.5 34.5q-5 19 -11 39h-368zM336 498v228q0 11 2.5 23t10 21.5t20.5 15.5t34 6h188q31 0 51.5 -14.5t20.5 -52.5v-227h-327z" />
    

    
    <glyph glyph-name="lajitong" unicode="&#58909;" d="M983.825036 622.413859c-2.820129 48.211104-47.640819 85.303969-104.333173 85.303969L704.661266 707.717828C704.27528 765.272564 651.609694 812 586.835984 812l-150.151862 0c-64.762119 0-117.427705-46.727436-117.816008-104.282172L144.038675 707.717828C84.478669 707.717828 39.553658 670.155521 39.553658 620.355269c0-11.788208 10.724139-21.361345 23.972833-21.403073L136.133506 598.722691l0-727.113349c0-49.224171 42.270635-83.608183 102.806618-83.608183l563.057892 0c31.887276 0 85.388585 10.856279 85.388585 83.608183L887.3866 596.369685l72.45517-0.217914c0.023182 0 0.057956 0 0.082297 0 0.151844 0 0.316439 0 0.465965 0 13.298536 0 24.05629 9.58357 24.05629 21.403073C984.446322 619.22629 984.235363 620.858325 983.825036 622.413859zM824.032807-122.766628c0-34.167257-12.485996-40.6386-35.514149-40.6386L252.078701-163.405229c-25.189905 0-52.11037 10.677775-52.11037 40.6386L199.968332 598.927854l624.063317 0L824.031648-122.766628zM436.919422 769.192694l150.151862 0c38.241549 0 69.330194-27.529001 69.717339-61.474866L367.210197 707.717828C367.59966 741.662534 398.687146 769.192694 436.919422 769.192694zM313.768004-88.030246 313.768004 511.566454c0 11.819504 11.690842 21.404233 26.080106 21.404233 14.417082 0 26.080106-9.584729 26.080106-21.404233L365.928215-88.030246c0-11.820663-11.664182-21.404233-26.080106-21.404233C325.458846-109.434478 313.768004-99.852068 313.768004-88.030246zM488.479212-88.030246 488.479212 511.566454c0 11.819504 11.687365 21.404233 26.080106 21.404233 14.417082 0 26.080106-9.584729 26.080106-21.404233L540.639423-88.030246c0-11.820663-11.664182-21.404233-26.080106-21.404233C500.166577-109.434478 488.479212-99.852068 488.479212-88.030246zM663.202011-88.030246 663.202011 511.566454c0 11.819504 11.678092 21.404233 26.080106 21.404233 14.404332 0 26.082424-9.584729 26.082424-21.404233L715.364541-88.030246c0-11.820663-11.678092-21.404233-26.082424-21.404233C674.880103-109.434478 663.202011-99.852068 663.202011-88.030246z"  horiz-adv-x="1024" />

    
    <glyph glyph-name="xiaoxi1" unicode="&#58944;" d="M273.37413577321934 518.1859069196086c-33.6387505829842 0-60.90328867568772-27.297299350751146-60.90328867568772-60.90328867568772 0-33.674361190760905 27.265962071586195-60.97166054151207 60.90328867568772-60.97166054151207 33.67578516964359 0 60.93889928346443 27.297299350751146 60.93889928346443 60.97166054151207C334.3130336647199 490.8886075688574 307.047071593134 518.1859069196086 273.37413577321934 518.1859069196086zM517.0912715576076 518.1859069196086c-33.640174561866885 0-60.93889928346443-27.297299350751146-60.93889928346443-60.90328867568772 0-33.674361190760905 27.29872332963383-60.97166054151207 60.93889928346443-60.97166054151207 33.6387505829842 0 60.934625954852656 27.297299350751146 60.934625954852656 60.97166054151207C578.0273228833066 490.8886075688574 550.7314475114379 518.1859069196086 517.0912715576076 518.1859069196086zM760.805560776194 518.1859069196086c-33.672937211878235 0-60.93604993373537-27.297299350751146-60.93604993373537-60.90328867568772 0-33.674361190760905 27.265962071586195-60.97166054151207 60.93604993373537-60.97166054151207 33.640174561866885 0 60.904712654570396 27.297299350751146 60.904712654570396 60.97166054151207C821.710273430764 490.8886075688574 794.4471593169435 518.1859069196086 760.805560776194 518.1859069196086zM517.0912715576076 883.745230663149c-269.1883485577679 0-487.4000877238098-190.94862505222113-487.4000877238098-426.4611898323091 0-134.6276475263729 71.43106661145954-254.5084305473512 182.77823789288757-332.68405551568543L212.46942172668508-91.05209682670534l213.5297202631769 129.51118421970133c29.554980982200064-4.845826585066972 59.909053535342345-7.704606868325905 91.09070558886278-7.704606868325905 269.184075229156 0 487.3986637449272 190.95289838083278 487.3986637449272 426.52956030616974C1004.4899366944986 692.7951816320449 786.2767721576099 883.745230663149 517.0912715576076 883.745230663149zM517.0912715576076 91.72471708729972c-35.5673956550741 0-69.93971529290526 4.120804187443524-102.9787912029621 11.157364517017744l-143.39486140086854-86.20784580910014 1.927219701243485 141.33659666743443c-109.98686360310042 66.08669847733725-182.04751818776964 175.3399944175545-182.04751818776964 299.2732097601519 0 201.83962756820978 190.94862505222113 365.55647578577515 426.4953750692394 365.55647578577515 235.54532464617196 0 426.4939510903567-163.7182735884117 426.4939510903567-365.55647578577515C943.5852226479642 255.37746815961577 752.6380215746257 91.72471708729972 517.0912715576076 91.72471708729972z"  horiz-adv-x="1024" />

    
    <glyph glyph-name="unie633" unicode="&#59138;" d="M512 884c-282.784 0-512-229.248-512-512s229.216-512 512-512 512 229.248 512 512c0 282.752-229.216 512-512 512zM512 692c35.328 0 64-28.672 64-64s-28.672-64-64-64-64 28.672-64 64 28.672 64 64 64zM352 116l96 64 64 0 0 256-64 0-32 64 160 0 0-320 64 0 96-64-384 0z"  horiz-adv-x="1024" />

    
    <glyph glyph-name="bianjixiugai" unicode="&#59036;" d="M853.333-128 170.667-128c-75.407 0-136.533 61.14-136.533 136.533L34.134 759.48C34.133 834.86 95.259 896 170.667 896l477.867 0 0-68.267L170.667 827.733c-37.697 0-68.267-30.57-68.267-68.253l0-750.947c0-37.711 30.57-68.253 68.267-68.253l682.667 0c37.711 0 68.267 30.542 68.267 68.253L921.601 554.68l68.267 0 0-546.147C989.867-66.86 928.741-128 853.333-128zM170.667 486.4l273.067 0 0-68.267L170.667 418.133 170.667 486.4zM716.8 213.333 170.667 213.333 170.667 281.6 716.8 281.6 716.8 213.333zM525.435 493.254 928.167 896l48.265-48.265L573.699 444.989 525.435 493.254z"  horiz-adv-x="1024" />

    
    <glyph glyph-name="tongguoshenhe" unicode="&#59333;" d="M82.03421 809.965916l651.944556 0c85.198211 0 199.725936 14.759794 236.111446-35.238604 26.03232-35.780378 21.143421-99.264947 21.143421-162.103008L991.233633 263.746222c-7.045652-5.87935-14.096476-11.748356-21.143421-17.622534-66.640825 0.067237-49.336373 57.561257-49.336373 119.817459l0 338.306371c-3.701909 5.066042-5.490152 13.823649-7.050824 21.142128-47.958016 27.254221-157.758469 14.097769-229.060622 14.097769L304.04918 739.487415c-70.408678 0-155.848683 5.519891-214.964146-7.046945-27.254221-47.961895-14.096476-157.762348-14.096476-229.060622L74.988558 122.782756c0-70.403506-5.519891-155.848683 7.045652-214.964146 29.61915-16.45494 78.581841-14.096476 126.86699-14.096476L459.105243-106.277866c40.872281 0 115.882807 10.47732 133.913935-14.095183 13.990448-18.244476 4.237218-49.882026-14.096476-56.383318l-496.888492 0c-99.223571 27.933055-77.53579 141.418608-77.525445 264.301812l0 458.121244c0 49.801859-12.191861 158.763144 3.520886 197.346784C23.792826 781.70702 51.89656 786.253269 82.03421 809.965916L82.03421 809.965916zM304.04918 563.287931l422.88264 0c12.334093-16.414856 18.213443-20.486568 17.617362-52.862431-35.835978-25.78406-78.177126-17.617362-137.433529-17.617362L304.04918 492.808138c-12.334093 16.416149-18.217322 20.481396-17.621241 52.857259C292.87751 550.211646 299.458968 556.878444 304.04918 563.287931L304.04918 563.287931zM304.04918 351.844671l422.88264 0c12.334093-16.416149 18.213443-20.486568 17.617362-52.855966-35.835978-25.789232-78.177126-17.623827-137.433529-17.623827L304.04918 281.364878c-12.334093 16.414856-18.217322 20.487861-17.621241 52.862431C292.87751 338.768386 299.458968 345.435184 304.04918 351.844671L304.04918 351.844671zM1008.854874 175.645187l35.239897 0c12.334093-16.414856 18.213443-20.485275 17.617362-52.862431-27.47662-21.929575-45.957718-59.48268-66.953735-88.101035-42.442004-57.828911-94.930753-111.371469-137.438701-169.153832-25.04704-34.042563-34.720104-77.9043-95.14798-77.525445-38.432357 49.12949-158.622205 120.175625-158.582122 193.822018 16.414856 12.334093 20.486568 18.213443 52.862431 17.617362 13.051718-17.177736 106.830392-110.408172 123.342225-116.291401 12.480204 21.325736 31.769438 37.28545 45.811607 56.383318 44.744868 60.861037 89.218202 118.824422 133.912642 179.724249C973.858065 138.803242 995.21354 155.335763 1008.854874 175.645187L1008.854874 175.645187zM304.04918 140.405291l422.88264 0c12.334093-16.414856 18.213443-20.485275 17.617362-52.861138-35.835978-25.785353-78.177126-17.617362-137.433529-17.617362L304.04918 69.92679c-12.334093 16.409684-18.217322 20.480103-17.621241 52.855966C292.87751 127.327712 299.458968 133.995803 304.04918 140.405291L304.04918 140.405291zM304.04918 140.405291"  horiz-adv-x="1062" />

    
    <glyph glyph-name="xuanzhong" unicode="&#58990;" d="M512 812c-282.75721 0-511.988364-229.231154-511.988364-511.988364s229.254426-511.988364 511.988364-511.988364c282.780482 0 511.988364 229.231154 511.988364 511.988364S794.75721 812 512 812zM778.257221 447.115202 427.265926 103.384832c-1.768687-2.932297-3.909729-5.934411-6.795482-8.820163l-16.453444-16.453444c-9.076157-9.09943-19.804641-13.102248-23.900548-9.029613L212.952251 244.041999c-4.095907 4.095907-0.046544 14.801118 9.029613 23.877276l16.453444 16.453444c9.09943 9.09943 19.781369 13.12552 23.877276 9.029613l125.320788-131.115566 341.286789 334.188768c9.09943 9.09943 23.807459 9.09943 32.906888 0l16.453444-16.453444C787.356651 470.945933 787.356651 456.214631 778.257221 447.115202z"  horiz-adv-x="1024" />

    
    <glyph glyph-name="jiantou" unicode="&#58907;" d="M352 300l384 384c12.8 12.8 12.8 32 0 44.8-12.8 12.8-32 12.8-44.8 0L288 325.6C281.6 319.2 275.2 306.4 275.2 300c0-6.4 0-19.2 6.4-25.6l409.6-409.6c12.8-12.8 32-12.8 44.8 0s12.8 32 0 44.8L352 300z"  horiz-adv-x="1024" />

    
    <glyph glyph-name="duihao" unicode="&#59070;" d="M1012.36546624 695.13242725L410.47791966-99.95301409000001 155.71611049 349.07263312l-123.13853047-42.45985582-22.2871772 59.44272801 176.20833471 64.75372091 234.59715542-403.37866031 591.26957329 772.79157493L1012.36546624 695.13242725z"  horiz-adv-x="1024" />

    
    <glyph glyph-name="iconset0441" unicode="&#59200;" d="M448 341.333333c-6.4 0-10.666667-2.133333-14.933333-6.4L85.333333-12.8 85.333333 234.666667c0 12.8-8.533333 21.333333-21.333333 21.333333s-21.333333-8.533333-21.333333-21.333333l0-298.666667c0-12.8 8.533333-21.333333 21.333333-21.333333l298.666667 0c12.8 0 21.333333 8.533333 21.333333 21.333333 0 12.8-8.533333 21.333333-21.333333 21.333333L115.2-42.666667l347.733333 347.733333c4.266667 4.266667 6.4 8.533333 6.4 14.933333C469.333333 332.8 460.8 341.333333 448 341.333333zM960 853.333333 661.333333 853.333333c-12.8 0-21.333333-8.533333-21.333333-21.333333 0-12.8 8.533333-21.333333 21.333333-21.333333l247.466667 0L561.066667 462.933333C556.8 458.666667 554.666667 454.4 554.666667 448c0-12.8 8.533333-21.333333 21.333333-21.333333 6.4 0 10.666667 2.133333 14.933333 6.4L938.666667 780.8 938.666667 533.333333c0-12.8 8.533333-21.333333 21.333333-21.333333s21.333333 8.533333 21.333333 21.333333L981.333333 832C981.333333 844.8 972.8 853.333333 960 853.333333z"  horiz-adv-x="1024" />

    
    <glyph glyph-name="bangzhuzhongxin" unicode="&#58893;" d="M512-120C233.65385577-120 8 105.64778316000002 8 384 8 662.3461442299999 233.65385577 888 512 888c278.35221684 0 504-225.65385577 504-504C1016 105.64778316000002 790.35221684-120 512-120M461.60151791 81.60151790999998l100.79696418 0 0 100.79696418-100.79696418 0L461.60151791 81.60151790999998zM709.27804841 529.42677155C698.39043369 625.72872314 632.49091578 678.91590319 512 686.39848209c-142.46804841 4.98079477-173.42154211-62.45956631-201.60151791-181.16067473l94.4119516-20.44084317c19.53910842 79.79443369 30.46771055 103.25927686 107.18956631 100.8045547 65.74012003-5.02937367 86.58325266-10.93467473 93.09426525-64.83838528 4.32954211-36.61134947-8.41467473-76.40154211-86.35857792-121.64768634-72.56992739-43.0100242-57.13416844-76.63836108-54.8054453-133.05296419l0-33.26703581 90.37236108 0 0 27.2205547c-2.33631366 42.33448209-7.33532527 61.03713262 57.17667473 94.97971055C713.60151791 409.30322845 713.60151791 469.70580736 709.27804841 529.42677155"  horiz-adv-x="1024" />

    
    <glyph glyph-name="shezhi1" unicode="&#58906;" d="M990.126 504.693l-79.272-46.152c4.446-24.238 7.363-48.998 7.363-74.547 0-25.545-2.916-50.305-7.361-74.539l79.272-46.148c32.381-18.85 43.477-60.604 24.781-93.254l-67.701-118.243c-18.694-32.647-60.103-43.833-92.486-24.988l-80.085 46.627c-37.419-32.119-79.954-58.368-127.23-75.244v-57.938c0-37.704-30.312-68.268-67.703-68.268h-135.406c-37.39 0-67.703 30.566-67.703 68.268v57.938c-47.276 16.878-89.811 43.127-127.23 75.244l-80.085-46.627c-32.383-18.848-73.789-7.662-92.482 24.988l-67.709 118.245c-18.694 32.647-7.6 74.402 24.781 93.254l79.272 46.148c-4.444 24.232-7.361 48.994-7.361 74.539 0 25.549 2.916 50.309 7.361 74.549l-79.272 46.148c-32.381 18.85-43.475 60.604-24.781 93.254l67.707 118.239c18.692 32.653 60.099 43.844 92.482 24.99l80.087-46.623c37.419 32.121 79.954 58.368 127.228 75.244l0 57.934c0 37.704 30.312 68.27 67.703 68.27h135.406c37.39 0 67.703-30.566 67.703-68.27v-57.934c47.274-16.878 89.809-43.123 127.228-75.244l80.087 46.623c32.383 18.854 73.791 7.664 92.486-24.99l67.701-118.239c18.696-32.647 7.6-74.404-24.781-93.254zM939.352 593.371l-33.851 59.124c-9.347 16.323-30.052 21.92-46.242 12.497l-94.054-54.759c-47.741 54.301-112.257 93.254-185.5 108.249v75.123c0 18.85-15.155 34.126-33.851 34.126h-67.705c-18.696 0-33.851-15.276-33.851-34.126v-75.123c-73.243-14.995-137.759-53.948-185.5-108.249l-94.054 54.759c-16.189 9.423-36.893 3.826-46.242-12.497l-33.851-59.124c-9.347-16.323-3.799-37.202 12.39-46.627l94.431-54.972c-11.25-33.958-17.986-69.997-17.986-107.778 0-37.773 6.734-73.812 17.983-107.768l-94.431-54.977c-16.189-9.427-21.737-30.302-12.39-46.627l33.851-59.118c9.349-16.331 30.052-21.924 46.242-12.493l94.050 54.755c47.743-54.301 112.259-93.254 185.504-108.245v-75.129c0-18.848 15.155-34.126 33.851-34.126h67.705c18.696 0 33.851 15.28 33.851 34.126v75.129c73.245 14.993 137.761 53.946 185.502 108.245l94.052-54.755c16.189-9.429 36.895-3.838 46.242 12.493l33.851 59.118c9.347 16.325 3.799 37.2-12.39 46.627l-94.431 54.977c11.25 33.954 17.983 69.994 17.983 107.768 0 37.779-6.734 73.816-17.983 107.774l94.431 54.974c16.191 9.427 21.737 30.306 12.392 46.629zM512.002 213.338c-93.479 0-169.257 76.409-169.257 170.658 0 94.259 75.778 170.674 169.257 170.674 93.477 0 169.257-76.415 169.257-170.674-0.002-94.251-75.78-170.658-169.257-170.658zM512.002 486.398c-56.089 0-101.554-45.844-101.554-102.402 0-56.549 45.468-102.39 101.554-102.39 56.084 0 101.552 45.838 101.552 102.39-0 56.558-45.468 102.402-101.552 102.402z"  horiz-adv-x="1024" />

    
    <glyph glyph-name="xiangqing2" unicode="&#58892;" d="M821.70538667 865.67822222h-55.31534222c-22.50638222 0-40.75064889-18.24426667-40.7506489-40.75064889s18.24426667-40.75064889 40.7506489-40.75064888h55.31534222c26.42261333 0 48.35100445-7.96103111 63.41290666-23.02407112 15.06417778-15.06417778 23.02520889-36.99029333 23.02520889-63.41290666v-648.84394667c0-26.42261333-7.96103111-48.35100445-23.02520889-63.41290667-15.06304-15.06417778-36.99029333-23.02520889-63.41290666-23.02520888h-633.38040889c-26.42261333 0-48.35100445 7.96103111-63.41290667 23.02520888-15.06304 15.06304-23.02407111 36.99029333-23.02407111 63.41290667v648.84394667c0 26.42261333 7.96103111 48.34986667 23.02407111 63.41290666 15.06417778 15.06304 36.99029333 23.02407111 63.41290667 23.02407112h55.31534222c22.50638222 0 40.75064889 18.24426667 40.75064889 40.75064888s-18.24426667 40.75064889-40.75064889 40.75064889h-55.31534222c-98.87971555 0-167.93941333-69.05742222-167.93941333-167.93827555v-648.84394667c0-98.87971555 69.05856-167.93941333 167.93941333-167.93941333h633.38040889c98.87971555 0 167.93941333 69.05856 167.93941333 167.93941333v648.84394667c0 98.87971555-69.05856 167.93827555-167.93941333 167.93827555zM254.69269333 574.62328889v0c0-22.41308445 18.33756445-40.75064889 40.75064889-40.75064889h419.14595556c22.41308445 0 40.75064889 18.33756445 40.75064889 40.75064889v0c0 22.41308445-18.33756445 40.75064889-40.75064889 40.75064889h-419.14595556c-22.41308445 0-40.75064889-18.33756445-40.75064889-40.75064889zM411.87214222 772.53404445h186.28721778c28.81649778 0 52.39352889 23.57703111 52.39352889 52.39352888v0c0 28.81649778-23.57703111 52.39352889-52.39352889 52.39352889h-186.28721778c-28.81649778 0-52.39352889-23.57703111-52.39352889-52.39352889v0c0-28.81649778 23.57703111-52.39352889 52.39352889-52.39352888zM755.33994667 395.55072c0 22.41308445-18.33756445 40.75064889-40.75064889 40.75064889h-419.14595556c-22.41308445 0-40.75064889-18.33756445-40.75064889-40.75064889v0c0-22.41308445 18.33756445-40.75064889 40.75064889-40.75064889h419.14595556c22.41308445 0 40.75064889 18.33756445 40.75064889 40.75064889v0zM714.58929778 257.2288h-419.14595556c-22.41308445 0-40.75064889-18.33756445-40.75064889-40.75064889v0c0-22.41308445 18.33756445-40.75064889 40.75064889-40.75064889h419.14595556c22.41308445 0 40.75064889 18.33756445 40.75064889 40.75064889v0c0 22.41308445-18.33756445 40.75064889-40.75064889 40.75064889z"  horiz-adv-x="1024" />

    
    <glyph glyph-name="xiala1" unicode="&#59024;" d="M579.043 103.592l418.544 418.641c25.83 25.827 33.48 64.34 19.53 98.087-13.95 33.655-46.79 55.52-83.14 55.52L96.8 675.84c-36.352 0-69.205-21.955-83.147-55.52-4.59-11.157-6.842-22.86-6.842-34.47 0-23.395 9.177-46.43 26.365-63.62l418.641-418.639c16.912-16.91 39.772-26.365 63.622-26.365 23.84 0 46.795 9.535 63.62 26.365L579.043 103.591 579.043 103.592z"  horiz-adv-x="1024" />

    
    <glyph glyph-name="bianji" unicode="&#58889;" d="M810.3984415056957-33.30878953218462c21.473399596660652 0 38.86326495327419-18.24679080143012 38.86326495327419-40.781634384957314 0-22.49828122279341-17.38872313176071-40.74507202422353-38.86326495327419-40.74507202422353L123.25766338505673-114.83549705790983c-21.442549476735334 0-38.83127260849604 18.245648576577292-38.83127260849604 40.74507202422353 0 22.533701358674367 17.389865356613534 40.781634384957314 38.83127260849604 40.781634384957314L810.3984415056957-33.30878953218462zM121.44555324447214 21.709226135623226l93.3408474833111 261.6169332660097 152.13047621662042-159.66684564887348L121.44555324447214 21.709226135623226zM398.1089475041068 153.7282423188343L244.6919420119528 314.7044695561078l417.06770862940084 434.20735193477503L815.172086117552 587.9321664625063 398.1089475041068 153.7282423188343zM843.7956670255994 621.3842355235105L690.3798037582985 782.3616061021814l76.73935286600225 80.49039918488684c25.427822232742372 26.64579903585248 66.59793030481572 26.64579903585248 92.02461031270524 0l61.35811838496478-64.38363531270384c25.427822232742372-26.681218055189103 25.427822232742372-69.94907845496734 0-96.62915428530361L843.7956670255994 621.3842355235105z"  horiz-adv-x="1024" />

    
    <glyph glyph-name="guanbi-copy" unicode="&#58899;" d="M513.55268388 895.60663381c-281.2510112 0-509.24910273-227.99809152-509.24910271-509.25237233 0-281.24992169 227.99809152-509.25019224 509.24910271-509.25019224 281.23357364 0 509.23166516 227.99918104 509.23166515 509.25019224C1022.78434903 667.60745277 794.78625751 895.60663381 513.55268388 895.60663381zM728.60236857 171.71326643999998c-0.00762874-0.00871825-0.01634806-0.01743756-0.0250663-0.02506631-14.15704035-14.15704035-37.11018924-14.17120724-51.28466717-0.02288621L513.61916349 335.04561859 350.23776931 171.35361881999995c-0.00871825-0.00762874-0.01743756-0.01852709-0.02506632-0.02397678-14.15812986-14.15812986-37.10909972-14.17229782-51.28357657-0.02506631-14.19954316 14.17447685-14.22351995 37.1461539-0.06757019 51.32826056l163.38139419 163.69090918L298.54986113 549.70841033c-14.18101607 14.15594977-14.20390334 37.12762682-0.0490431 51.30973346 0.00871825 0.00762874 0.01743756 0.01634806 0.02506631 0.02506631 14.1385122 14.1385122 37.09166216 14.15159064 51.26614008 0.00435913l163.69090919-163.38248371 163.3661367 163.69526833c0.00871825 0.00762874 0.01743756 0.01634806 0.02397679 0.02397679 14.15812986 14.15812986 37.11127983 14.17120724 51.30319425 0.00653922 14.18319618-14.15594977 14.20281277-37.12762682 0.0490431-51.30973347l-163.38357429-163.6941788L728.53588897 223.00447283000005C742.71690504 208.84852306000005 742.73979125 185.87466590999998 728.60236857 171.71326643999998z"  horiz-adv-x="1024" />

    
    <glyph glyph-name="dui" unicode="&#58918;" d="M899.19644481 693.91788811L356.84014101 162.63008085 129.93597441 384c-27.6712405 27.6712405-71.94522334 27.6712405-99.61646386 0-27.6712405-27.6712405-27.6712405-71.94522334 0-94.08221641l271.17815108-265.64390364c16.60274397-11.06849653 33.20548795-22.13699142 49.80823192-22.13699143 16.60274397 0 38.73973542 5.53424745 49.80823195 22.13699143l592.1645357 575.56179175c27.6712405 27.6712405 27.6712405 71.94522334 0 94.08221641C971.14166815 721.5891269900001 926.86768529 721.5891269900001 899.19644481 693.91788811z"  horiz-adv-x="1024" />

    
    <glyph glyph-name="arrow-down" unicode="&#58908;" d="M834.332 576.575l-320.678-324.097-325.429 322.001c-14.29 14.291-37.513 14.24-51.863-0.11v-0.001c-14.352-14.351-14.402-37.571 3.556-51.856l343.491-343.491c5.186-4.634 11.312-9.959 14.619-10.842 13.486-5.426 30.055-2.71 43.676 8.144l348.29 348.29c10.738 14.412 10.794 37.739-3.561 52.093-14.351 14.35-37.679 14.293-52.101-0.127z"  horiz-adv-x="1024" />

    
    <glyph glyph-name="sanjiao" unicode="&#59172;" d="M709.973333 390.826667 378.88 725.333333c-13.653333 13.653333-34.133333 13.653333-47.786667 0-13.653333-13.653333-13.653333-34.133333 0-47.786667l307.2-307.2-307.2-307.2c-13.653333-13.653333-13.653333-34.133333 0-47.786667 6.826667-6.826667 17.066667-10.24 23.893333-10.24 10.24 0 17.066667 3.413333 23.893333 10.24l331.093333 331.093333c6.826667 6.826667 10.24 13.653333 10.24 23.893333S716.8 384 709.973333 390.826667z"  horiz-adv-x="1024" />

    
    <glyph glyph-name="bangzhu" unicode="&#59415;" d="M511.998977-63.575712c-60.457954 0-119.120005 11.845793-174.358073 35.20992-53.340859 22.561855-101.240799 54.854329-142.368498 95.983051-41.127699 41.126676-73.421196 89.027639-95.982028 142.368498C75.92625 265.222803 64.080457 323.886901 64.080457 384.343831s11.846816 119.120005 35.20992 174.358073c22.560832 53.340859 54.854329 101.240799 95.982028 142.368498 41.128723 41.127699 89.027639 73.421196 142.368498 95.982028 55.238069 23.364127 113.901143 35.20992 174.358073 35.20992 60.457954 0 119.120005-11.846816 174.359097-35.20992 53.340859-22.560832 101.240799-54.854329 142.369521-95.982028 41.126676-41.127699 73.420173-89.027639 95.982028-142.368498 23.364127-55.238069 35.20992-113.901143 35.20992-174.358073s-11.845793-119.121028-35.20992-174.358073c-22.561855-53.340859-54.854329-101.241822-95.982028-142.368498-41.128723-41.127699-89.028663-73.42222-142.369521-95.983051C631.118981-51.729919 572.45693-63.575712 511.998977-63.575712zM511.998977 782.122393c-219.335451 0-397.777539-178.442088-397.777539-397.777539s178.442088-397.777539 397.777539-397.777539c219.336474 0 397.778562 178.442088 397.778562 397.777539C909.777539 603.679281 731.335451 782.122393 511.998977 782.122393zM360.685759 483.295494c0.976234 29.571503 4.729721 52.751435 11.280928 69.466118 6.547113 16.741289 17.582447 32.017204 33.101909 45.845141 15.515369 13.812587 32.857339 24.00267 52.016701 30.54876 19.157315 6.529717 38.917358 9.813506 59.302641 9.813506 43.156916 0 78.435397-12.252045 105.85284-36.719296 27.395954-24.509207 41.072441-57.366545 41.072441-98.576109 0-20.865213-4.107551-38.807864-12.344143-53.858652-8.259104-15.006785-26.196639-35.387975-53.838186-61.098543-30.080086-28.640294-48.508807-49.729611-55.299467-63.319118-6.7968-13.544481-10.17371-36.102243-10.17371-67.62826l-50.215682 0c0.976234 28.596292 5.591345 52.752458 13.850449 72.379471 8.216125 19.628036 26.288736 43.784202 54.175877 72.380494 27.882024 28.638247 45.353954 48.88436 52.392254 60.738339 7.014764 11.903098 10.549264 26.822902 10.549264 44.760436 0 27.172873-8.859785 48.976458-26.554796 65.472154-17.697057 16.497743-41.586141 24.734334-71.671343 24.734334-64.98199 0-100.369965-38.300304-106.207927-114.940822L360.685759 483.293447 360.685759 483.295494zM536.742521 129.715573l-56.014758 0 0 59.675124 56.014758 0L536.742521 129.715573 536.742521 129.715573zM536.742521 129.715573"  horiz-adv-x="1024" />

    
    <glyph glyph-name="shujudongtai" unicode="&#59137;" d="M957.331 87.935v-55.542h-888.684v666.512h55.542v-610.97h833.141zM901.788 629.476v-188.757c0-6.076-2.82-10.348-8.463-12.8-5.639-2.462-10.78-1.379-15.405 3.254l-52.505 52.505-274.674-274.674c-2.896-2.896-6.226-4.337-9.981-4.337-3.764 0-7.089 1.444-9.981 4.337l-101.105 101.106-180.513-180.513-83.315 83.315 253.849 253.847c2.889 2.889 6.218 4.34 9.981 4.34 3.755 0 7.085-1.452 9.981-4.34l101.105-101.105 201.343 201.342-52.505 52.505c-4.629 4.623-5.715 9.762-3.255 15.405 2.453 5.639 6.725 8.463 12.8 8.463h188.758c4.047 0 7.376-1.3 9.981-3.906 2.604-2.604 3.903-5.932 3.903-9.981z"  horiz-adv-x="1024" />

    
    <glyph glyph-name="duigou" unicode="&#58912;" d="M513.102612 871.646336c-269.188882 0-487.407905-218.22107-487.407905-487.406882 0-269.188882 218.219024-487.410975 487.407905-487.410975 269.189905 0 487.407905 218.222093 487.407905 487.410975C1000.509495 653.424242 782.291494 871.646336 513.102612 871.646336zM797.29521 530.4607 437.927469 182.092477l-209.019501 209.020524c-11.000542 11.000542-11.000542 33.003672 0 47.671743 11.000542 14.668071 33.002648 11.000542 47.670719 0l161.348782-165.015288 311.697021 304.361963c14.667048 11.001565 33.002648 11.001565 47.670719 0C808.297798 563.463348 808.297798 545.127747 797.29521 530.4607z"  horiz-adv-x="1024" />

    
    <glyph glyph-name="nan" unicode="&#58950;" d="M790.85952 312.8448c0 76.19968-24.19072 148.67712-68.93184 208.67456l108.66176 108.66176 0-84.74496c0-14.14016 5.72928-26.9376 14.99648-36.20352 9.26336-9.26464 22.06592-14.99648 36.20352-14.99648 28.27648 0 51.2 22.92224 51.2 51.2l0 204.2112c0.11008 1.36832 0.18176 2.7456 0.18176 4.1408 0 14.18752-5.7728 27.02592-15.09504 36.29952-9.27232 9.31456-22.1056 15.08096-36.28672 15.08224-1.3952 0-2.77504-0.07168-4.14208-0.18176l-204.2112 0c-28.27648 0-51.2-22.92352-51.2-51.2 0-14.13888 5.73184-26.93888 14.99648-36.2048 9.26592-9.26464 22.06464-14.9952 36.20352-14.9952l84.74624 0-108.66176-108.66304c-59.99744 44.73856-132.47744 68.93056-208.67712 68.92928-93.49376 0-181.3888-36.40576-247.49824-102.51648C127.23712 494.2336 90.8288 406.336 90.8288 312.84224c0.00128-93.49248 36.40832-181.38752 102.51776-247.49696 66.10816-66.10688 154.00448-102.5152 247.49696-102.5152 93.4912 0 181.39008 36.40704 247.49696 102.5152C754.45248 131.45472 790.85824 219.35232 790.85952 312.8448zM440.84352 65.22752c-66.14016 0.00256-128.32128 25.75744-175.08992 72.52736-46.76736 46.76736-72.52352 108.9472-72.5248 175.08736 0 66.14272 25.75616 128.32256 72.52352 175.0912 46.76864 46.76736 108.94848 72.52352 175.0912 72.5248 66.14016 0 128.32384-25.75744 175.08992-72.5248 46.76864-46.76864 72.5248-108.94848 72.5248-175.08864 0-66.14272-25.75744-128.32256-72.5248-175.09248C569.16608 90.98496 506.98368 65.22752 440.84352 65.22752z"  horiz-adv-x="1024" />

    
    <glyph glyph-name="baobiao1" unicode="&#59122;" d="M4.405845 821.011098l94.348831 0 0-857.67488-94.348831 0 0 857.67488ZM4.405845 57.686073l1016.503259 0 0-94.348831-1016.503259 0 0 94.348831ZM181.637362 318.508403l187.255825 0 0-202.015993-187.255825 0 0 202.015993ZM451.776895 730.830193l187.254801 0 0-614.337783-187.254801 0 0 614.337783ZM721.916429 523.237181l187.254801 0 0-406.744771-187.254801 0 0 406.744771Z"  horiz-adv-x="1024" />

    
    <glyph glyph-name="zhankai" unicode="&#59026;" d="M69.58105826660619 19.510597671913274L402.6815921500623 352.6111299842794C414.12498910949944 364.0545316569867 433.38626660923865 364.2164277685372 445.1664047155823 352.4362943754636 456.602024779504 341.0006743115415 457.0248208102407 321.63505758251597 445.3412450376683 309.9514818099434L112.09867833357112-23.29108646524378 497.59741260027636-23.29108646524378C513.8277526925573-23.29108646524378 527.6802119300622-36.79638194476149 527.6802119300622-53.45601452494168 527.6802119300622-69.6284238155381 514.2116878120671-83.62094258464003 497.59741260027636-83.62094258464003L41.682568934493474-83.62094258464003C40.934356173592676-83.67786945981277 40.17854562143697-83.70688277890031 39.41612863581804-83.70688277890031 23.24371934522179-83.70688277890031 9.251199005029832-70.23835237654521 9.251199005029832-53.624078735844705L9.251199005029832 404.1061405754512C9.251199005029832 420.3364806677321 22.756497626727537 434.1889446185071 39.41612863581804 434.1889446185071 55.58853635532421 434.1889446185071 69.58105826660619 420.7204157872419 69.58105826660619 404.1061405754512L69.58105826660619 19.510597671913274ZM919.8242767061388 783.5313221152467L586.7237396805027 450.4307882317906C575.2803427210656 438.9873912723533 556.0190667924165 438.82549044753296 544.2389271149827 450.6056285538766 532.8033086221509 462.0412486177984 532.3805157335944 481.4068606335542 544.064091506167 493.0904411193966L877.306655068084 826.3330062524037 491.8079239435586 826.3330062524037C475.5775838512779 826.3330062524037 461.72511990050293 839.8383048741015 461.72511990050293 856.497934312102 461.72511990050293 872.6703436026982 475.193650302858 886.6628639428901 491.8079239435586 886.6628639428901L947.7227676093419 886.6628639428901C948.4709787991524 886.7197892469728 949.2267909223985 886.7488009949702 949.9892047658373 886.7488009949702 966.1616140564331 886.7488009949702 980.1541328255354 873.2802721637053 980.1541328255354 856.6659985230045L980.1541328255354 398.93577764061877C980.1541328255354 382.70543754833807 966.6488373460174 368.8529783108331 949.9892047658373 368.8529783108331 933.8167970463307 368.8529783108331 919.8242767061388 382.3215071420981 919.8242767061388 398.93577764061877L919.8242767061388 783.5313221152467Z"  horiz-adv-x="1024" />

    
    <glyph glyph-name="shangchuan1" unicode="&#59027;" d="M984.603569 226.461538c-21.752123 0-39.3728-17.640369-39.3728-39.384615l0-186.320738c0-27.616492-22.382277-49.990892-49.983015-49.990892L128.748308-49.234708c-27.604677 0-49.983015 22.382277-49.983015 49.990892L78.765292 187.076923c0 21.744246-17.632492 39.384615-39.384615 39.384615-21.752123 0-39.384615-17.640369-39.384615-39.384615l0-255.996062C0-101.407508 26.584615-128 59.076923-128l905.846154 0c32.488369 0 59.076923 26.580677 59.076923 59.080862L1024 187.076923C1023.988185 208.821169 1006.355692 226.461538 984.603569 226.461538zM85.334646 426.381785l131.639138 0 0-224.862523c0-34.985354 28.301785-63.275323 63.259569-63.275323L742.518154 138.243938c34.981415 0 63.275323 28.301785 63.275323 63.275323L805.793477 426.381785l131.6352 0c0.488369-0.074831 0.917662-0.074831 1.244554 0 17.482831 0 31.617969 14.150892 31.617969 31.6416 0 10.665354-5.246031 20.074338-13.351385 25.828431L535.422031 885.527631c-11.988677 13.957908-36.084185 13.957908-48.088615 0L61.298215 478.590031c-8.026585-9.401108-9.873723-22.614646-4.702523-33.792C61.7984 433.553723 72.971815 426.381785 85.334646 426.381785z"  horiz-adv-x="1024" />

    
    <glyph glyph-name="xiugai1" unicode="&#58971;" d="M965.2906666666668 736l-114.68799999999999 114.68799999999999c-40.96 40.96-109.22666666666667 40.96-152.91733333333335 0L105.13066666666668 260.86400000000003c0 0 0 0 0 0-5.461333333333333-5.461333333333333-8.192-10.922666666666666-8.192-19.11466666666667L9.557333333333304-66.81599999999992c-2.7306666666666666-8.192 0-19.11466666666667 8.192-27.30666666666667 5.461333333333333-5.461333333333333 10.922666666666666-8.192 19.11466666666667-8.192 2.7306666666666666 0 5.461333333333333 0 8.192 0L350.8906666666667-14.93333333333328c5.461333333333333 0 13.653333333333334 2.7306666666666666 16.384 8.192l0 0c0 0 0 0 0 0l595.2853333333334 587.0933333333332c19.11466666666667 19.11466666666667 32.768 46.42133333333334 32.768 76.45866666666667C998.0586666666666 689.5786666666668 987.136 716.8853333333334 965.2906666666668 736zM337.23733333333337 39.680000000000064L75.0933333333333-34.04799999999989l73.72800000000001 262.144L634.8800000000001 708.6933333333334l188.416-188.416L337.23733333333337 39.680000000000064zM927.0613333333333 624.0426666666666L861.5253333333333 558.5066666666667l-188.416 188.416 65.536 65.536c21.845333333333333 19.11466666666667 54.61333333333334 19.11466666666667 73.72800000000001 0l114.68799999999999-114.68799999999999c10.922666666666666-10.922666666666666 16.384-24.576 16.384-38.22933333333334C943.4453333333333 645.8879999999999 937.9839999999999 632.2346666666666 927.0613333333333 624.0426666666666z"  horiz-adv-x="1024" />

    
    <glyph glyph-name="xingbienv" unicode="&#58904;" d="M510.887666 384m-446.708971 0a446.708971 446.708971 0 1 1 893.417942 0 446.708971 446.708971 0 1 1-893.417942 0ZM510.87948 317.097264c-123.673717 0-224.282113 100.607372-224.282113 224.282113s100.607372 224.282113 224.282113 224.282113 224.282113-100.607372 224.282112-224.282113-100.608396-224.282113-224.282112-224.282113z m0 364.80559c-77.486792 0-140.523477-63.036685-140.523477-140.523477s63.036685-140.523477 140.523477-140.523477 140.523477 63.036685 140.523477 140.523477-63.036685 140.523477-140.523477 140.523477zM510.87948-0.635217c-23.12058 0-41.878806 18.744923-41.878806 41.878806V358.97607c0 23.133883 18.758226 41.878806 41.878806 41.878806s41.878806-18.744923 41.878806-41.878806v-317.732481c0-23.133883-18.758226-41.878806-41.878806-41.878806zM669.752884 158.237163H352.033705c-23.12058 0-41.878806 18.744923-41.878806 41.878806s18.758226 41.878806 41.878806 41.878807h317.719179c23.12058 0 41.878806-18.744923 41.878806-41.878807s-18.758226-41.878806-41.878806-41.878806z"  horiz-adv-x="1024" />

    
    <glyph glyph-name="xingbienan" unicode="&#58905;" d="M511.843434 384m-446.708971 0a446.708971 446.708971 0 1 1 893.417942 0 446.708971 446.708971 0 1 1-893.417942 0ZM424.111301 77.174939c-59.328223 0-115.140367 23.107277-157.101038 65.081251-86.620823 86.620823-86.620823 227.581252 0 314.215378 41.960671 41.973974 97.771791 65.081251 157.101038 65.081251 59.355853 0 115.140367-23.12058 157.101037-65.081251 41.960671-41.973974 65.081251-97.771791 65.081251-157.11434s-23.12058-115.140367-65.081251-157.101038-97.745185-65.081251-157.101037-65.081251z m0 360.620268c-36.97103 0-71.733765-14.409175-97.881285-40.543392-53.957913-53.984518-53.957913-141.804656 0-195.775872 26.14752-26.14752 60.910255-40.543392 97.881285-40.543391s71.733765 14.395872 97.881284 40.543391c26.14752 26.14752 40.543392 60.910255 40.543392 97.881285s-14.395872 71.733765-40.543392 97.894587c-26.146497 26.14752-60.909232 40.543392-97.881284 40.543392zM551.602973 384.983397c-10.715039 0-21.430078 4.090155-29.609365 12.269442-16.358573 16.358573-16.358573 42.874483 0 59.219753L672.577209 607.056192h-42.833551c-23.12058 0-41.878806 18.744923-41.878806 41.878806s18.758226 41.878806 41.878806 41.878806h143.958716c16.931624 0 32.200376-10.210549 38.689161-25.847691 6.488785-15.650445 2.889817-33.67189-9.078773-45.641503L581.212338 397.252839c-8.179286-8.179286-18.894326-12.269441-29.609365-12.269442zM773.703397 607.056192h-143.958716c-23.12058 0-41.878806 18.744923-41.878806 41.878806s18.758226 41.878806 41.878806 41.878806h143.958716c23.12058 0 41.878806-18.744923 41.878806-41.878806s-18.758226-41.878806-41.878806-41.878806zM779.864724 456.949452c-23.12058 0-41.878806 18.744923-41.878806 41.878806V642.773671c0 23.133883 18.758226 41.878806 41.878806 41.878807s41.878806-18.744923 41.878806-41.878807v-143.945413c0-23.133883-18.758226-41.878806-41.878806-41.878806zM779.864724 456.949452c-23.12058 0-41.878806 18.744923-41.878806 41.878806V642.773671c0 23.133883 18.758226 41.878806 41.878806 41.878807s41.878806-18.744923 41.878806-41.878807v-143.945413c0-23.133883-18.758226-41.878806-41.878806-41.878806z"  horiz-adv-x="1024" />

    
    <glyph glyph-name="gonggao1" unicode="&#58989;" d="M278.3797634844444 301.67430144c-30.91634744888889 0-56.09049429333333-26.2144-56.09049429333333-58.52468792888889 0-32.22706744888889 25.174145706666664-58.44146744888888 56.09049429333333-58.44146744888888 30.895543182222223 0 56.007273813333335 26.2144 56.007273813333335 58.44146744888888C334.40784270222224 275.45990144000007 309.2961120711111 301.67430144 278.3797634844444 301.67430144zM511.97919459555555 301.67430144c-30.874737777777778 0-56.02807921777777-26.2144-56.02807921777777-58.52468792888889 0-32.22706744888889 25.153341440000002-58.44146744888888 56.02807921777777-58.44146744888888 30.937152853333334 0 56.09049429333333 26.2144 56.09049429333333 58.44146744888888C568.0696888888889 275.45990144000007 542.9163474488888 301.67430144 511.97919459555555 301.67430144zM745.6202365155555 301.67430144c-30.874737777777778 0-56.007273813333335-26.2144-56.007273813333335-58.52468792888889 0-32.22706744888889 25.132536035555557-58.44146744888888 56.007273813333335-58.44146744888888 30.91634744888889 0 56.04888348444444 26.2144 56.04888348444444 58.44146744888888C801.6899254044445 275.45990144000007 776.557389368889 301.67430144 745.6202365155555 301.67430144zM858.9871138133334 588.0354133333333l-62.70650936888889 0L532.4513928533335 852.6968274488888c-9.237455075555555 9.320675555555557-22.219824924444445 14.376310328888888-38.69744810666667 15.021267626666667-14.938047146666666-0.22885603555555553-28.83584-6.199913813333334-38.135710151111105-16.415208106666668L215.23634744888892 588.0354133333333 161.6424630044445 588.0354133333333c-73.77481159111112 0-125.20496810666667-71.2365920711111-125.20496810666667-135.19140522666666l0-421.36527189333333c0-71.15337159111111 57.33879921777777-131.21763555555555 125.20496810666667-131.21763555555555l697.3446496711111 0c68.49032078222221 0 128.5753901511111 61.31256888888889 128.5753901511111 131.21763555555555L987.5625039644444 452.8648123733333C987.54169856 523.6020827022222 926.2707404799999 588.0354133333333 858.9871138133334 588.0354133333333zM344.2694496711111 588.0354133333333l152.12674048 166.5862701511111 166.06614300444443-166.5862701511111L344.2694496711111 588.0354133333333zM136.80119921777782 452.8648123733333c0 16.810503964444443 14.58436096 34.827703182222216 24.84126492444444 34.827703182222216l697.3446496711111 0c10.881056995555555 0 28.19088270222222-19.015842702222223 28.19088270222222-34.827703182222216l0-421.36527189333333c0-14.147454293333334-15.270927928888888-30.833128106666667-28.19088270222222-30.833128106666667L161.6424630044445 0.6664123733334009c-10.839446186666667 0-24.84126492444444 14.91724174222222-24.84126492444444 30.833128106666667L136.80119921777782 452.8648123733333z"  horiz-adv-x="1024" />

    
    <glyph glyph-name="020caozuo_daochu" unicode="&#58920;" d="M832-64H64V832h448v-320h320v-64h64V569.28L551.424 896H0v-1024h896V0h-64v-64zM576 784.576L795.776 576H576V784.576z m211.392-705.024L900.928 192H448v64h449.664L790.656 358.144l44.224 46.336L1024 223.936 832.512 34.112l-45.12 45.44z"  horiz-adv-x="1024" />

    
    <glyph glyph-name="lianxiren" unicode="&#59058;" d="M880.64 89.088c-23.552 119.808-125.952 180.224-251.904 201.728-7.168 1.024-12.288 7.168-12.288 14.336v6.144c0 5.12 2.048 9.216 6.144 12.288 55.296 43.008 92.16 122.88 92.16 225.28 0 117.76-79.872 211.968-200.704 214.016-121.856-2.048-201.728-97.28-201.728-215.04 0-105.472 38.912-186.368 97.28-229.376 4.096-3.072 6.144-7.168 6.144-12.288 0-7.168-5.12-13.312-13.312-14.336-130.048-20.48-235.52-80.896-260.096-202.752-8.192-41.984 11.264-82.944 65.536-82.944h607.232c54.272 0 73.728 40.96 65.536 82.944z"  horiz-adv-x="1024" />

    
    <glyph glyph-name="shenhebohui" unicode="&#58969;" d="M620.8 744.8533333299999h178.34666667v-59.73333333H620.8v59.73333333z m47.78666667-118.4h131.84v-59.73333333H668.58666667v59.73333333z m44.69333333-128.10666666h81.28v-59.73333334h-81.28v59.73333334zM182.93333333 251.20000000000005h180.48v-59.73333333H182.93333333v59.73333333z m2.34666667-128.10666667h105.28v-59.73333333h-105.28v59.73333333zM847.25333333 870.29333333H130.13333333c-32.96 0-59.73333333-26.77333333-59.73333333-59.73333333v-836.69333333c0-32.96 26.77333333-59.73333333 59.73333333-59.73333334l279.57333334 0.32v59.73333334l-279.57333334-0.32V810.56h717.12v-468.48h59.73333334V810.56c0 32.96-26.77333333 59.73333333-59.73333334 59.73333333zM649.6 212.26666666999995v69.97333333c0 3.09333333 0 12.16-6.08 21.33333333s-18.24 9.17333333-33.49333333 3.09333334H606.93333333l-133.76-146.13333334c-3.09333333-3.09333333-15.25333333-18.24-15.25333333-33.49333333 0-18.24 15.25333333-33.49333333 18.24-33.49333333L610.13333333-58.453333329999964c3.09333333-3.09333333 12.16-12.16 21.33333334-12.16s15.25333333 6.08 18.24 12.16c3.09333333 6.08 3.09333333 12.16 3.09333333 21.33333333v88.21333333c39.57333333 0 149.01333333-6.08 216-124.69333333 4.69333333-10.34666667 12.16-12.16 18.24-12.16h6.08l4.58666667 1.38666667c9.17333333 3.09333333 10.66666667 13.86666667 10.66666666 16.96-3.2 45.44-21.44 267.52-258.77333333 279.68z m12.16-130.88h-24.32l-15.25333333-3.09333334v-103.46666666l-121.6 140.05333333c-3.09333333 3.09333333-9.17333333 9.17333333-9.17333334 12.16 0 3.09333333 3.09333333 9.17333333 6.08 12.16l118.61333334 127.78666667v-88.21333334h15.25333333c170.34666667 0 222.08-115.62666667 237.22666667-194.66666666-69.86666667 88.21333333-164.16 97.28-206.82666667 97.28zM384.32 765.54666667c-120.21333333 0-217.70666667-97.49333333-217.70666667-217.70666667 0-120.21333333 97.49333333-217.70666667 217.70666667-217.70666667s217.70666667 97.49333333 217.70666667 217.70666667c0 120.21333333-97.49333333 217.70666667-217.70666667 217.70666667z m0-381.01333334c-90.02666667 0-163.30666667 73.28-163.30666667 163.30666667 0 90.02666667 73.28 163.30666667 163.30666667 163.30666667 90.02666667 0 163.30666667-73.28 163.30666667-163.30666667 0-90.02666667-73.28-163.30666667-163.30666667-163.30666667z m27.2 174.50666667v97.6c0 15.04-12.16 27.2-27.2 27.2s-27.2-12.16-27.2-27.2v-109.01333333c0-7.46666667 3.09333333-14.29333333 8-19.2l54.4-54.4c5.33333333-5.33333333 12.26666667-8 19.30666667-8 6.93333333 0 13.97333333 2.66666667 19.2 8 10.66666667 10.66666667 10.66666667 27.84 0 38.50666666l-46.50666667 46.50666667z"  horiz-adv-x="1024" />

    
    <glyph glyph-name="beifenzaibei09" unicode="&#58890;" d="M17.645305001310703 624.3455466859153a10.97999229630198 2.563097300798424 0 1 1 562.1756055706612 0 10.97999229630198 2.563097300798424 0 1 1-562.1756055706612 0ZM579.8209105719718 473.1096167588731l0 87.7590447334781c-31.428936507629064-29.90954297905971-146.62147550694274-52.081433729294-284.3235482628395-52.081433729294-129.9644205270713 0-240.0079036795666 19.752115871401614-278.4147956517365 47.129336302845736l0-82.80694730702986 0-35.53692641820547c38.37875505497408-27.349083514248385 148.42223820746938-47.129336302845736 278.4147956517365-47.129336302845736 137.73020967309245 0 252.89461175521043 22.20002766743002 284.3235482628395 52.081433729294L579.8209105719718 473.1096167588731zM579.8209105719718 304.28811358450025l0 87.7590447334781c-31.428936507629064-29.90954297905971-146.62147550694274-52.081433729294-284.3235482628395-52.081433729294-129.9644205270713 0-240.0079036795666 19.72397895420589-278.4147956517365 47.101199385650006l0-82.80694730702986 0-35.53692641820547c38.37875505497408-27.377220431444123 148.42223820746938-47.15747322004146 278.4147956517365-47.15747322004146 137.73020967309245 0 252.89461175521043 22.20002766743002 284.3235482628395 52.10957064648972L579.8209105719718 304.28811358450025zM579.8209105719718 135.4666104101276l0 87.7590447334781c-31.428936507629064-29.90954297905971-146.62147550694274-52.081433729294-284.3235482628395-52.081433729294-129.9644205270713 0-240.0079036795666 19.72397895420589-278.4147956517365 47.101199385650006l0-82.77881038983412 0-35.53692641820547c38.37875505497408-27.377220431444123 148.42223820746938-47.15747322004146 278.4147956517365-47.15747322004146 137.73020967309245 0 252.89461175521043 22.20002766743002 284.3235482628395 52.10957064648972L579.8209105719718 135.4666104101276zM861.9497792935443 502.0062307188865c-0.422053757935932 1.2942981910035245-0.844107515871864 2.6448702163985067-1.3787089425907109 4.248674496555048-3.095060891530167 9.172635005807587-7.906473731999791 22.28443841901721-15.756673629608123 35.87456942455422-7.6251045600425025 13.984047846277212-19.161240610291312 29.40307846953659-34.27076514439767 42.48674496555048-7.259324636498028 6.780997044170639-16.06617971876114 12.4083804833164-24.901171718219977 17.47302557854758-8.891265833850301 5.120918929622641-18.401543846006632 8.891265833850301-27.968095692554424 12.070737476967654-9.622825680939249 2.6730071335942354-19.18937752748704 5.430425018775658-28.727792456839097 6.387080203430437-9.454004177764876 1.3224351081992534-18.711049935159647 2.1665426240711168-27.57417885181422 1.9414472865052868-17.75439475050487 0.281369171957288-34.01753288963612-1.3787089425907109-47.607663895173125-3.798483821423387-13.646404839928469-1.913310369309558-24.760487132241337-4.755139006078165-32.49813936106676-6.668449375387724C613.5570742896507 610.164540419268 609.1395782899212 609.0953375658304 609.1395782899212 609.0953375658304s4.530043668512335 0.08441075158718638 12.436517400512129 0.19695842037010156c7.906473731999791 0.19695842037010156 19.18937752748704 0.5064645095231184 32.6388239470454-0.6190121783060335 13.365035667971178-0.6190121783060335 28.86847704281774-2.5604594648113204 44.68142450681733-6.415217120626166 8.019021400782707-1.6038042801565415 15.925495132782498-4.220537579359318 23.719421195999374-7.146776967715114 7.878336814804062-2.588596382007049 15.137661451302094-6.752860126974912 22.312575336212934-10.495070114006843 6.893544712953555-4.248674496555048 13.449446419558361-8.750581247871658 19.048692941508396-13.984047846277212 5.5711096047543025-5.205329681209827 10.832713120355585-10.410659362419654 14.659333858974703-16.34754889071843 8.244116738348536-11.395451464270161 13.561994088341278-23.32550435525917 16.488233476697072-34.24262822720194 1.8288996177223718-5.205329681209827 2.476048713224134-10.635754699985483 3.573388483857557-14.968839948127718 0.19695842037010156-1.3787089425907109 0.30950608915301675-2.3353641272454904 0.4783275923273895-3.573388483857557l-70.651799078475-0.5908752611103048 103.3750337771076-101.65868182816814 101.65868182816814 103.3750337771076L861.9497792935443 502.0062307188865zM836.1200893078653 180.00735033096623c-41.38940519491706 0-75.06929507820442 33.62361604889591-75.06929507820442 75.0411581610087s33.679889883287366 75.0411581610087 75.06929507820442 75.0411581610087 75.01302124381297-33.62361604889591 75.01302124381297-75.0411581610087S877.5094945027824 180.00735033096623 836.1200893078653 180.00735033096623zM836.1200893078653 301.95274945725487c-25.885963820070494 0-46.932377882475635-21.046414062405137-46.932377882475635-46.90424096527989s21.046414062405137-46.90424096527989 46.932377882475635-46.90424096527989c25.829689985679035 0 46.87610404808418 21.046414062405137 46.87610404808418 46.90424096527989S861.9497792935443 301.95274945725487 836.1200893078653 301.95274945725487zM917.4639169207173 418.6365450679421l0-32.16049635471801c43.9780015769241-27.349083514248385 73.40921696365643-75.941539511272 73.40921696365643-131.45567713844494 0-85.33926985464544-69.41377472186295-154.7811814937041-154.7530445765084-154.7811814937041s-154.8093184108998 69.44191163905866-154.8093184108998 154.7811814937041c0 52.89740432797014 26.701934418746628 99.63282379007568 67.33164284937902 127.54464564823863l0 33.0327407877856c-56.83657273537218-31.063156584084588-95.4685600451078-91.38870705172712-95.4685600451078-160.57738643602423 0-100.87084814668775 82.04725054274519-182.9180986894329 182.94623560662865-182.9180986894329 100.842711229492 0 182.88996177223717 82.04725054274519 182.88996177223717 182.9180986894329C1019.0100510801026 326.68509967230045 977.5925089679898 388.64259133729524 917.4639169207173 418.6365450679421z"  horiz-adv-x="1024" />

    
    <glyph glyph-name="dianpu" unicode="&#58886;" d="M827.392-95.424H196.544a141.824 141.824 0 0 0-141.696 141.696V584.576h64v-538.304c0-42.816 34.88-77.696 77.696-77.696h630.848c42.88 0 77.76 34.88 77.76 77.696V584.576h64v-538.304a141.824 141.824 0 0 0-141.76-141.696zM882.304 552.576H141.696A141.824 141.824 0 0 0 0 694.272v27.392C0 799.808 63.552 863.36 141.696 863.36h740.608c78.144 0 141.696-63.552 141.696-141.696v-27.392a141.824 141.824 0 0 0-141.696-141.696zM141.696 799.424c-42.816 0-77.696-34.88-77.696-77.696v-27.392c0-42.816 34.88-77.696 77.696-77.696h740.608c42.816 0 77.696 34.88 77.696 77.696v27.328c0 42.816-34.88 77.696-77.696 77.696H141.696zM621.632 105.152H402.24a141.824 141.824 0 0 0-141.696 141.76v27.392c0 78.144 63.552 141.696 141.696 141.696h219.392c78.208 0 141.76-63.552 141.76-141.696v-27.456a141.824 141.824 0 0 0-141.76-141.696zM402.24 352c-42.816 0-77.696-34.88-77.696-77.696v-27.456c0-42.88 34.88-77.76 77.696-77.76h219.392c42.88 0 77.76 34.88 77.76 77.76v27.456c0 42.816-34.88 77.696-77.76 77.696H402.24zM196.544 682.816a32 32 0 0 0-32 32V824.576a32 32 0 0 0 64 0V714.88a32 32 0 0 0-32-32.064zM406.848 682.816a32 32 0 0 0-32 32V824.576a32 32 0 0 0 64 0V714.88a32 32 0 0 0-32-32.064zM617.152 682.816a32 32 0 0 0-32 32V824.576a32 32 0 0 0 64 0V714.88a32 32 0 0 0-32-32.064zM827.392 682.816a32 32 0 0 0-32 32V824.576a32 32 0 0 0 64 0V714.88a32 32 0 0 0-32-32.064z"  horiz-adv-x="1024" />

    
    <glyph glyph-name="jia" unicode="&#59102;" d="M512-128C229.242435-128 0 101.242435 0 384S229.242435 896 512 896 1024 666.757565 1024 384 794.757565-128 512-128z m290.771478 523.130435a44.521739 44.521739 0 0 1-44.521739 44.521739h-189.217391v178.086956a55.652174 55.652174 0 1 1-111.304348 0v-178.086956h-189.217391a44.521739 44.521739 0 0 1-44.521739-44.521739v-22.26087a44.521739 44.521739 0 0 1 44.521739-44.521739h189.217391v-178.086956a55.652174 55.652174 0 0 1 111.304348 0v178.086956h189.217391a44.521739 44.521739 0 0 1 44.521739 44.521739v22.26087z"  horiz-adv-x="1024" />

    
    <glyph glyph-name="jia1" unicode="&#58911;" d="M512 849.454545A465.454545 465.454545 0 1 0 46.545455 384 465.454545 465.454545 0 0 0 512 849.454545m0 46.545455a512 512 0 1 1 512-512A512 512 0 0 1 512 896zM721.454545 407.272727H302.545455a23.272727 23.272727 0 1 1 0-46.545454h418.90909a23.272727 23.272727 0 1 1 0 46.545454zM721.454545 407.272727H302.545455a23.272727 23.272727 0 1 1 0-46.545454h418.90909a23.272727 23.272727 0 1 1 0 46.545454zM512 593.454545zM512 616.727273a23.272727 23.272727 0 0 1-23.272727-23.272728v-418.90909a23.272727 23.272727 0 1 1 46.545454 0V593.454545a23.272727 23.272727 0 0 1-23.272727 23.272728z"  horiz-adv-x="1024" />

    
    <glyph glyph-name="jian" unicode="&#59153;" d="M509.02528 838.88128c-251.07456 0-455.33184-204.288-455.33184-455.32672 0-251.07456 204.288-455.32672 455.33184-455.32672s455.32672 204.28288 455.32672 455.32672c0.03072 251.03872-204.25728 455.32672-455.32672 455.32672z m171.74528-486.88128H337.28c-13.24544 0-24.00256 18.74944-24.00256 32 0 13.24544 10.752 32 24.00256 32h343.49056c13.24544 0 24.00256-18.75456 24.00256-32-0.00512-13.25056-10.75712-32-24.00256-32z"  horiz-adv-x="1024" />

    
    <glyph glyph-name="sanjiao-copy-copy" unicode="&#58884;" d="M518.826 186.027l334.507 331.093c13.653 13.653 13.653 34.133 0 47.788-13.653 13.653-34.133 13.653-47.788 0l-307.2-307.2-307.2 307.2c-13.653 13.653-34.133 13.653-47.788 0-6.827-6.827-10.24-17.067-10.24-23.893 0-10.24 3.413-17.067 10.24-23.893l331.093-331.093c6.827-6.827 13.653-10.24 23.893-10.24s13.653 3.412 20.48 10.24z"  horiz-adv-x="1024" />

    
    <glyph glyph-name="VIP" unicode="&#59022;" d="M633.28917428-76.64461495h-82.48150598v394.34354283h82.48150598v-394.34354283M990.23868461 115.18653883000002c-21.99549977-32.9926024-56.24639337-49.33226445-102.90673083-49.33226446h-94.57896613v-142.49888932h-82.48150596v394.34354283h180.36154468c38.17722817 0 68.1846253-11.31167541 89.86684681-33.77838711 21.8375661-22.4667117 32.67932413-53.25989357 32.67932413-92.53747928 0.15793367-27.65133748-7.54068543-53.10325443-22.9366291-76.1978172M90.47633162-76.64461495v839.74755872c0 3.45641718-2.82856613 6.28368877-6.28368877 6.28368876h-64.25699618c-3.45641718 0-6.28368877 2.82856613-6.28368878 6.28368877v64.41492987c0 3.45641718 2.82856613 6.28368877 6.28368878 6.28368876h295.05116284c3.45641718 0 6.28368877-2.82856613 6.28368878-6.28368876v-378.31845357l385.38792708 382.71858915c1.10035753 1.10035753 2.82856613 1.88484773 4.39884103 1.88484772h287.35124924c5.65583771 0 8.32647017-6.75619523 4.39884104-10.68382436l-912.33102506-912.33102506M913.88422827 236.9456305c-11.31167541 8.32647017-29.85075801 12.56867209-55.61595323 12.56867208h-65.51399285v-115.4754029h76.51239c26.39434082 0 44.30427781 8.0131919 53.88903918 24.03828115 5.18462578 8.7976821 7.6986191 21.20971504 7.6986191 37.23480432 0 19.32486732-5.65583771 33.14924151-16.96751314 41.63364535M913.88422827 236.9456305z"  horiz-adv-x="1024" />

    
    <glyph glyph-name="note" unicode="&#58919;" d="M512.137 896c-282.695 0-511.864-229.169-511.864-511.863 0-282.695 229.169-511.863 511.863-511.863 282.695 0 511.864 229.168 511.864 511.863 0.001 282.694-229.168 511.863-511.863 511.863zM786.811 477.835c-10.527-15.604-20.502-27.931-30.049-37.477-74.947-60.805-153.447-55.593-234.398-58.688-39.252-1.498-73.186-32.529-91.213-52.676l36.769-254.906-94.754-13.436-86.262 602.791c95.454 20.855 164.731 12.657 211.418-1.418 27.2-8.198 50.799-18.159 69.295-33.229 44.436-36.194 56.914-56.171 121.619-50.557 12.719 1.101 26.855 3.613 43.479 6.367 28.277 4.673 66.826 13.431 115.264 27.574-20.153-65.055-43.059-107.524-61.168-134.345zM512.137 896c-282.695 0-511.864-229.169-511.864-511.863 0-282.695 229.169-511.863 511.863-511.863 282.695 0 511.864 229.168 511.864 511.863 0.001 282.694-229.168 511.863-511.863 511.863zM786.811 477.835c-10.527-15.604-20.502-27.931-30.049-37.477-74.947-60.805-153.447-55.593-234.398-58.688-39.252-1.498-73.186-32.529-91.213-52.676l36.769-254.906-94.754-13.436-86.262 602.791c95.454 20.855 164.731 12.657 211.418-1.418 27.2-8.198 50.799-18.159 69.295-33.229 44.436-36.194 56.914-56.171 121.619-50.557 12.719 1.101 26.855 3.613 43.479 6.367 28.277 4.673 66.826 13.431 115.264 27.574-20.153-65.055-43.059-107.524-61.168-134.345z"  horiz-adv-x="1024" />

    
    <glyph glyph-name="icon-alipay" unicode="&#58917;" d="M283.794286 104.594286c-149.211429 0-174.08 93.622857-165.302857 133.12 7.314286 39.497143 51.2 90.697143 134.582857 90.697143 95.085714 0 181.394286-24.868571 285.257143-74.605715-74.605714-93.622857-163.84-149.211429-254.537143-149.211428zM1024 193.828571V698.514286C1024 808.228571 936.228571 896 826.514286 896h-629.028572C87.771429 896 0 808.228571 0 698.514286v-630.491429C0-40.228571 87.771429-128 197.485714-128h630.491429c96.548571 0 178.468571 70.217143 194.56 162.377143-52.662857 21.942857-279.405714 119.954286-396.434286 177.005714-89.234286-109.714286-184.32-175.542857-326.217143-175.542857s-238.445714 87.771429-226.742857 194.56c7.314286 70.217143 55.588571 185.782857 264.777143 163.84 109.714286-10.24 159.451429-30.72 250.148571-59.977143 23.405714 42.422857 42.422857 89.234286 57.051429 138.971429H247.222857V514.194286h198.948572V584.411429H204.8v43.885714h241.371429v102.4s2.925714 16.091429 20.48 16.091428h98.011428v-118.491428H819.2v-43.885714H563.2v-70.217143h209.188571c-19.017143-77.531429-48.274286-149.211429-84.845714-213.577143 59.977143-21.942857 336.457143-106.788571 336.457143-106.788572z"  horiz-adv-x="1024" />

    
    <glyph glyph-name="gongsishezhi" unicode="&#58984;" d="M967.111111 440.888889h-61.44a398.222222 398.222222 0 0 1-23.893333 91.022222l52.906666 30.72a56.888889 56.888889 0 0 1-56.888888 98.417778l-52.906667-30.72a398.222222 398.222222 0 0 1-66.56 66.56l30.72 52.906667a56.888889 56.888889 0 1 1-98.417778 56.888888l-30.72-52.906666a398.222222 398.222222 0 0 1-91.022222 23.893333V839.111111a56.888889 56.888889 0 0 1-113.777778 0v-61.44a398.222222 398.222222 0 0 1-91.022222-23.893333l-30.72 52.906666a56.888889 56.888889 0 1 1-98.417778-56.888888l30.72-52.906667A398.222222 398.222222 0 0 1 199.111111 630.328889l-52.906667 30.72a56.888889 56.888889 0 1 1-56.888888-98.417778l52.906666-30.72A398.222222 398.222222 0 0 1 118.328889 440.888889H56.888889a56.888889 56.888889 0 0 1 0-113.777778h61.44a398.222222 398.222222 0 0 1 23.893333-91.022222l-52.906666-30.72a56.888889 56.888889 0 1 1 56.888888-98.417778l52.906667 30.72a398.222222 398.222222 0 0 1 66.56-66.56l-30.72-52.906667a56.888889 56.888889 0 1 1 98.417778-56.888888l30.72 52.906666a398.222222 398.222222 0 0 1 91.022222-23.893333V-71.111111a56.888889 56.888889 0 0 1 113.777778 0v61.44a398.222222 398.222222 0 0 1 91.022222 23.893333l30.72-52.906666a56.888889 56.888889 0 0 1 98.417778 56.888888l-30.72 52.906667a398.222222 398.222222 0 0 1 66.56 66.56l52.906667-30.72a56.888889 56.888889 0 0 1 56.888888 98.417778l-52.906666 30.72a398.222222 398.222222 0 0 1 23.893333 91.022222H967.111111a56.888889 56.888889 0 0 1 0 113.777778z m-455.111111-341.333333a284.444444 284.444444 0 1 0 284.444444 284.444444 284.444444 284.444444 0 0 0-284.444444-284.444444z"  horiz-adv-x="1024" />

    
    <glyph glyph-name="duigou2" unicode="&#58914;" d="M688.23 558.693L431.83 302.29l-121.64 121.643c-15.163 15.163-39.748 15.162-54.912 0-15.164-15.163-15.164-39.747 0-54.911l149.095-149.1a38.66 38.66 0 0 1 23.734-11.195 38.972 38.972 0 0 1 7.443 0 38.674 38.674 0 0 1 23.734 11.194l283.86 283.857c15.161 15.163 15.161 39.748 0 54.912-15.168 15.166-39.75 15.164-54.913 0.002zM816.908 707.006C732.046 791.866 619.218 838.6 499.208 838.6c-120.01 0-232.837-46.736-317.698-131.595-84.86-84.86-131.595-197.688-131.595-317.698S96.65 156.47 181.51 71.61c84.861-84.862 197.688-131.595 317.698-131.595 120.01 0 232.838 46.733 317.7 131.595C901.767 156.47 948.5 269.3 948.5 389.308c-0.001 120.011-46.734 232.838-131.593 317.698z m-317.7-689.334c-204.921 0-371.636 166.716-371.636 371.636 0 204.921 166.715 371.637 371.636 371.637 204.92 0 371.636-166.716 371.636-371.637S704.128 17.672 499.208 17.672z"  horiz-adv-x="1024" />

    
    <glyph glyph-name="jia3" unicode="&#58898;" d="M840.836096 430.137344H556.363776V714.576896c0 24.517632-19.852288 44.399616-44.386304 44.399616-24.543232 0-44.392448-19.881984-44.392448-44.399616v-284.439552H183.163904c-24.544256 0-44.392448-19.881984-44.392448-44.399616 0-24.50432 19.848192-44.386304 44.392448-44.386304h284.422144v-284.453888c0-24.500224 19.849216-44.384256 44.392448-44.384256 24.534016 0 44.386304 19.884032 44.386304 44.384256V341.351424H840.83712c24.544256 0 44.392448 19.881984 44.392448 44.386304-0.002048 24.517632-19.849216 44.399616-44.393472 44.399616z"  horiz-adv-x="1024" />

    
    <glyph glyph-name="daoru" unicode="&#58880;" d="M258.7648 539.5376355555554a5.610382222222222 5.610382222222222 0 0 0-1.4085688888888888 6.16448 5.606968888888888 5.606968888888888 0 0 0 5.225813333333332 3.5657955555555554h156.33408l-0.33678222222222215 255.7883733333333a16.77312 16.77312 0 0 0 4.925439999999998 11.922773333333332 16.793599999999998 16.793599999999998 0 0 0 11.920497777777776 4.943644444444444h153.11985777777778c4.309902222222222 0 8.626631111111108-1.6497777777777778 11.919360000000001-4.943644444444444a16.797013333333332 16.797013333333332 0 0 0 4.920888888888888-11.922773333333332l-0.3117511111111111-255.7883733333333h156.33976888888887a5.6172088888888885 5.6172088888888885 0 0 0 5.226951111111111-3.5657955555555554 5.609244444444444 5.609244444444444 0 0 0-1.4108444444444443-6.16448L523.4551466666667 315.3362488888888a16.814079999999997 16.814079999999997 0 0 0-11.45400888888889-4.494222222222222 16.804977777777776 16.804977777777776 0 0 0-11.455146666666666 4.494222222222222L258.7648 539.5376355555554zM1004.7863466666668 254.61532444444447l-151.57475555555556 117.10577777777776c-8.587946666666664 6.699235555555556-24.524799999999995 12.181048888888888-35.41560888888888 12.181048888888888h-87.75793777777777L876.1207466666667 238.34168888888894H730.4681244444446l-74.12167111111111-105.35253333333333H364.4871111111112l-70.95523555555556 105.36959999999999H147.86787555555554L293.02328888888894 383.9032888888888h-89.39747555555554c-10.890808888888886 0-26.828799999999998-5.481813333333333-35.41560888888888-12.181048888888888L16.633173333333445 254.61532444444447c-8.58680888888889-6.700373333333333-12.84437333333333-20.65180444444444-9.460622222222222-31.00444444444444l60.46947555555555-185.02883555555553c3.382613333333333-10.352640000000001 15.063039999999999-18.823395555555553 25.953848888888885-18.823395555555553h835.3962666666666c10.890808888888886 0 22.52913777777777 8.483271111111112 25.865102222222223 18.85184l59.48188444444444 184.97080888888885c3.3325511111111106 10.369706666666668-0.9648355555555554 24.33365333333333-9.552782222222223 31.034026666666666z"  horiz-adv-x="1024" />

    
    <glyph glyph-name="xiazai" unicode="&#59514;" d="M935.253333 216.746667l-34.133333-187.733334H122.88l-34.133333 187.733334H0v-300.373334h1024v300.373334h-88.746667m-20.48 337.92h-256V663.893333h-293.546666V554.666667H112.64L512 128 914.773333 554.666667m-256 296.96h-293.546666v-40.96h293.546666V851.626667m0-75.093334h-293.546666v-75.093333h293.546666V776.533333m0 0z"  horiz-adv-x="1024" />

    
    <glyph glyph-name="shanchu" unicode="&#59018;" d="M231.232 433.568h561.568v-99.136H231.232zM511.648 895.168C229.536 895.168 0.832 666.496 0.832 384.352c0-282.08 228.704-510.784 510.816-510.784s510.784 228.672 510.784 510.784c0 282.112-228.672 510.816-510.784 510.816z m258.432-563.584l-205.696 0.032H253.184V437.12h205.728l105.472-0.032h205.76l-0.064-105.504z"  horiz-adv-x="1024" />

    
    <glyph glyph-name="infomation" unicode="&#59148;" d="M505.2668546963157 892.9196226902321C227.15011497159577 889.1982831498758 4.716364523919992 660.6917909917966 8.415996209351192 382.5544845204598c3.720197315503605-278.00933820876867 232.206122726966-500.50592888805915 510.3217202268331-496.80744054402527 278.07446512317773 3.741906286973309 500.5447768150429 232.2483984450525 496.8451451296118 510.36399482837544-3.720197315503605 278.0310471802384-232.22097611623002 500.5184978276175-510.3160068694803 496.80858388542237z m55.83266539453789-167.83048522132052c51.19270240260291 0 66.31000366798975-29.71359056513378 66.31000366798975-63.67067374457241 0-42.446353974298276-33.97879215090833-81.68552367513007-91.92863439491516-81.68552367513007-48.498530054629214 0-71.57152344276606 24.409796188815235-70.22329504392638 64.70698096886643 0 33.96850877759989 28.462480308937035 80.64921533429171 95.84192577085177 80.64921645083605zM429.846023450625 74.56533808120128c-34.98310814696854 0-60.62230562051082 21.222034204024148-36.13824248537519 114.59487291556907l40.13722640579348 165.5956257156804c6.970799531909495 26.537255295048293 8.147643958330182 37.142559597979734 0 37.142558481435394-10.499046128377238 0-55.918359055563876-18.325627763706155-82.73325761412971-36.372468922497625l-17.49269685660926 28.654431027972898c85.10751098049927 71.06879377403736 182.98091993979398 112.75648378755913 224.93482873521637 112.75648378755913 34.98425037182137 0 40.80105779017703-41.3780544052261 23.330069905037476-105.03730255163725l-45.97459945422168-174.08375316914297c-8.147643958330182-30.771607877441845-4.6399629919349845-41.37691218037329 3.4848275369840005-41.37691218037329 10.521897324699768 0 44.906301001693855 12.765897978795463 78.69199909216914 39.30315327384375l19.823533396583773-26.537255295048293c-82.77667444052477-82.7561088104522-173.10114614455247-114.63943308336131-208.06368866144848-114.63943308336131z"  horiz-adv-x="1024" />

    
    <glyph glyph-name="unfix" unicode="&#58882;" d="M30.145117059405095-91.47698898445128l391.3626476207382 310.27530860925367 156.12672732321738-166.05529503852526c0 0 65.17287414464558-17.75942280052185 69.18516576252385 31.56709403021001l-4.012291617878252 168.09398112275082 231.29324973374372 266.8075548312591 100.74923279038164 5.85119554685678c0 0 79.04865292725889 15.914464866838868 21.767173914871766 85.03152307643761l-282.65542564634904 284.5654641306049c0 0-77.0099668430333 9.86500066591115-71.15725779500046-61.227176578516364v-77.07656089478235l-262.7952632133809-223.46844865323425-162.04300342064704-9.798406614162133c0 0-59.31865159543658-19.7300013318223-37.61958523348996-71.15725779500046l152.24459680648485-150.2074242234354-302.4505075287442-393.2045785520689z"  horiz-adv-x="1024" />

    
    <glyph glyph-name="ccgl-rukuguanli-2" unicode="&#58881;" d="M946.2858666666666 841.1893333333333h-777.1424000000001l-136.91413333333333-264.96-0.22933333333333333-649.3258666666667h1051.4250666666667l-0.22933333333333333 652.2517333333333-136.91093333333333 262.03413333333333zM580.5717333333332 64h-45.71413333333333l-182.8576 182.8576h137.14346666666665v182.90346666666667h137.14346666666665v-182.90346666666667h137.14346666666665l-182.8576-182.8576zM169.14346666666665 566.8575999999999l91.42933333333333 182.8576h594.2858666666667l91.42933333333333-182.8576h-777.1434666666667z"  horiz-adv-x="1121" />

    
    <glyph glyph-name="jia2" unicode="&#58883;" d="M512.24986643-117.88961114000006c-275.99720336 0-499.74338999 225.30061886-499.74338999 503.24152005s223.74618662 503.23099939 499.74470507 503.23099938 499.72366369-225.29009816 499.7236637-503.23099938S788.24969996-117.88961114000006 512.25118151-117.88961114000006z m247.44930566 525.02198263c0 21.3780461-17.19870123 38.68984477-38.42288221 38.68984479H567.49665022V600.67891179c0 21.37673103-17.19870123 38.71351632-38.4241973 38.71351632H490.62984441c-21.22023573 0-38.44392361-17.33678531-38.44392361-38.71351632V445.82221628h-153.75991336c-21.24390728 0-38.44523868-17.31311375-38.44523868-38.68984479v-38.71483141c0-21.37673103 17.20133139-38.71351632 38.44655377-38.71351633h153.75859827v-154.85406533c0-21.37673103 17.22368785-38.69115986 38.44392361-38.69115986h38.4439236c21.22418099 0 38.4241973 17.31442883 38.4241973 38.68984477V329.70665394h153.77963967c21.22286591 0 38.42288221 17.33678531 38.4228822 38.71351632v38.71483142z"  horiz-adv-x="1024" />

    
    <glyph glyph-name="dui1" unicode="&#58887;" d="M462.98412698 24.893713570000045c-15.96027971 0-23.94041957 7.98013987-39.90069787 15.96027972l-383.04670598 319.20558714c-23.94041957 15.96027971-31.92055941 55.86097756-7.98013985 79.80139713 15.96027971 23.94041957 55.86097756 31.92055941 79.80139713 7.98013988l335.16586686-279.3048893 454.86796328 606.49061771c15.96027971 23.94041957 55.86097756 31.92055941 79.80139715 15.96027829 23.94041957-15.96027971 31.92055941-55.86097756 15.9602797-79.80139714l-486.78852269-654.371454c-7.98013987-15.96027971-23.94041957-23.94041957-47.88083773-31.92055943 7.98013987 0 0 0 0 0z"  horiz-adv-x="1024" />

    
    <glyph glyph-name="dragsequence" unicode="&#59760;" d="M0 581.12h1024v-69.632h-1024zM0 418.816h1024v-69.632h-1024zM0 256.512h1024v-69.632h-1024z"  horiz-adv-x="1024" />

    
    <glyph glyph-name="message" unicode="&#59149;" d="M884.82702222 180.95976295000003v-23.15670059h-238.36074287c-38.40118329 0-79.2050296-24.39945733-96.976451-58.03673979L512 28.929188339999996l-37.48982835 70.87855945c-17.77142139 33.59585723-58.57526771 57.99531457-96.976451 57.99531457H139.17297778V760.91290863h745.65404444v-579.95314568z m6.87658729 662.80359507H132.29639049C90.41548832 843.7633580199999 56.32252839 808.17909001 56.32252839 764.47547795v-610.23498493c0-43.70361205 34.17581037-79.28788005 76.13956299-79.28788005h245.07162927c7.66366657 0 20.33978533-7.41511522 23.77807898-13.9188755l49.25459216-93.16533033 3.76969544-5.8823819c14.45740341-18.807052 35.45999234-29.57761043 57.66391277-29.57761043 22.20392044 0 43.20650935 10.77055842 57.66391277 29.57761043l53.0242876 99.04771223c3.1897423 5.96523235 15.49303404 13.9188755 23.77807898 13.9188755h245.2787554c41.88090217 0 75.93243685 35.584268 75.93243686 79.28788005V764.47547795C967.67747161 808.17909001 933.58451168 843.7633580199999 891.70360951 843.7633580199999zM284.16126419 512.36156049c-15.99013673 0-30.40611493-6.2137837-41.42522469-16.1144124A61.7235848 61.7235848 0 0 1 222.02342717 450.22372346c0-18.35137454 8.07791882-34.63148784 20.71261233-46.02342464a61.7235848 61.7235848 0 0 1 41.42522469-16.11441241 62.13783703 62.13783703 0 0 1 0 124.27567408M739.83873581 512.36156049a62.13783703 62.13783703 0 0 1 0-124.27567408c15.99013673 0 30.40611493 6.2137837 41.42522469 16.11441241 12.63469353 11.3919368 20.71261235 27.6720501 20.71261233 46.02342464a61.7235848 61.7235848 0 0 1-20.71261233 46.02342463 61.7235848 61.7235848 0 0 1-41.42522469 16.1144124M512 512.36156049c-15.99013673 0-30.40611493-6.2137837-41.42522469-16.1144124a61.7235848 61.7235848 0 0 1-20.71261234-46.02342463c0-18.35137454 8.07791882-34.63148784 20.71261234-46.02342464A61.7235848 61.7235848 0 0 1 512 388.08588641c15.99013673 0 30.40611493 6.2137837 41.42522469 16.11441241 12.63469353 11.3919368 20.71261235 27.6720501 20.71261234 46.02342464a61.7235848 61.7235848 0 0 1-20.71261234 46.02342463A61.7235848 61.7235848 0 0 1 512 512.36156049"  horiz-adv-x="1024" />

    
    <glyph glyph-name="shielding" unicode="&#59178;" d="M492.6917689 92.72888889000001H164.17436445A36.29966222 36.29966222 0 0 0 127.91111112 128.95573333000004L128.02033779 675.27111111h691.98734222c19.91566222 0 36.0448-16.42040889 36.04479999-36.55452444v-184.15616a36.40888889 36.40888889 0 0 1 72.81777778 0V638.71658667A109.22666667 109.22666667 0 0 1 820.0440889 748.08888889H128.02033779A72.81777778 72.81777778 0 0 1 55.09333333 675.5259733299999v-546.57024A109.22666667 109.22666667 0 0 1 164.17436445 19.91111110999998h328.51740445a36.40888889 36.40888889 0 0 1 0 72.81777778M382.77333333 384H237.13777779a36.40888889 36.40888889 0 0 1 0-72.81777778h145.63555554a36.40888889 36.40888889 0 0 1 0 72.81777778M382.77333333 238.36444444999995H237.13777779a36.40888889 36.40888889 0 0 1 0-72.81777778h145.63555554a36.40888889 36.40888889 0 0 1 0 72.81777778M528.40888889 529.6355555499999H237.13777779a36.40888889 36.40888889 0 0 1 0-72.81777777h291.2711111a36.40888889 36.40888889 0 0 1 0 72.81777777M783.27111111 19.91111110999998c-80.31800889 0-145.63555555 65.31754667-145.63555555 145.63555556 0 26.94257778 7.82791111 51.84625778 20.64384 73.50954666l198.50126222-198.50126222A143.70588445 143.70588445 0 0 0 783.27111111 19.91111110999998m0 291.27111111c80.31800889 0 145.63555555-65.31754667 145.63555556-145.63555555 0-26.94257778-7.82791111-51.84625778-20.64384-73.50954667l-198.50126222 198.50126222A143.70588445 143.70588445 0 0 0 783.27111111 311.18222221999997m0 72.81777778c-120.47701333 0-218.45333333-97.97632-218.45333333-218.45333333s97.97632-218.45333333 218.45333333-218.45333334 218.45333333 97.97632 218.45333334 218.45333334-97.97632 218.45333333-218.45333334 218.45333333"  horiz-adv-x="1024" />

    
    <glyph glyph-name="stealth" unicode="&#59181;" d="M512-30.252246910000054c-228.41868895 0-414.25224691 185.83355796-414.25224691 414.25224691S283.58131105 798.2522469099999 512 798.2522469099999s414.25224691-185.83355796 414.25224691-414.25224691-185.83355796-414.25224691-414.25224691-414.25224691m0 911.35494321C237.88928821 881.1026963 14.8973037 658.11071179 14.8973037 384s222.99198451-497.1026963 497.1026963-497.1026963 497.1026963 222.99198451 497.1026963 497.1026963S786.11071179 881.1026963 512 881.1026963M684.90888786 433.71026963h-331.40179753a41.42522469 41.42522469 0 0 1 0-82.85044938h331.40179753a41.42522469 41.42522469 0 0 1 0 82.85044938M684.90888786 268.00937086h-331.40179753a41.42522469 41.42522469 0 0 1 0-82.85044938h331.40179753a41.42522469 41.42522469 0 0 1 0 82.85044938M684.90888786 599.4111683900001h-331.40179753a41.42522469 41.42522469 0 0 1 0-82.85044937h331.40179753a41.42522469 41.42522469 0 0 1 0 82.85044937"  horiz-adv-x="1024" />

    
    <glyph glyph-name="sort-up" unicode="&#58895;" d="M666.4952864 337.65128677999996h-308.9918458l154.4952864-185.3942164 154.4952864 185.3942164zM357.5047136 430.34871322h308.9918458l-154.4952864 185.3942164-154.4952864-185.3942164z"  horiz-adv-x="1024" />

    
    <glyph glyph-name="zhankai1" unicode="&#59023;" d="M299.06488900000005 384L0 164.57955600000014V603.420444M0 896h1121.5075559999998v-146.261333H0zM390.087111 603.420444h687.6159999999999v-146.261333H390.087111zM390.087111 310.84088899999995h687.6159999999999v-146.261333H390.087111zM0 18.261333000000036h1121.5075559999998V-128H0z"  horiz-adv-x="1137" />

    
    <glyph glyph-name="shouqix" unicode="&#59099;" d="M413.0196121401176 235.7083415432569l-355.1270314972784-343.9622155130835a25.478682630598776 25.478682630598776 0 0 0-38.862147944986326 0.2147079996960571 34.35327995136914 34.35327995136914 0 0 0-0.14313866646403808 43.80043193799564l358.77706749211137 344.1053541795476H162.74165382774714c-14.886421312259959 0-27.554193294327327 13.95601998024371-27.554193294327327 31.13265995592828 0 16.747223976292453 12.309925315907272 31.13265995592828 27.554193294327327 31.13265995592828h279.4066769378023l2.0755106637285516 0.14313866646403808c14.743282645795917 0 27.554193294327327-13.95601998024371 27.554193294327327-31.06109062269626v-289.1401062573569c0-16.675654643060437-12.309925315907272-30.77481328976819-27.554193294327327-30.77481328976819-14.814851979027937 0-31.13265995592828 13.669742647315635-31.13265995592828 30.77481328976819v213.63445969757677zM610.9803878598823 532.1485197902795l355.1270314972784 343.9622155130835a25.478682630598776 25.478682630598776 0 0 0 38.862147944986326-0.2147079996960571 34.35327995136914 34.35327995136914 0 0 0 0.14313866646403808-43.87200127122766L646.3356384764998 487.9902411861236h214.99427702898515c14.886421312259959 0 27.554193294327327-13.95601998024371 27.554193294327327-31.2042292891603 0-16.675654643060437-12.309925315907272-31.13265995592828-27.554193294327327-31.13265995592828H581.9232385676826l-2.0755106637285516-0.07156933323201904c-14.743282645795917 0-27.554193294327327 13.884450647011692-27.554193294327327 31.06109062269626V745.7114101546241c0 16.747223976292453 12.309925315907272 30.846382623000206 27.554193294327327 30.846382623000206 14.814851979027937 0 31.13265995592828-13.741311980547655 31.13265995592828-30.846382623000206V532.1485197902795z"  horiz-adv-x="1024" />

    
    <glyph glyph-name="sanjiao1" unicode="&#58913;" d="M512.5-56.3c-3.6 0-7.2 1.4-9.9 4.1l-430 430c-3.4 3.4-3.4 9 0 12.5l430 430c5.5 5.5 14.3 5.5 19.8 0s5.5-14.3 0-19.8L112.3 390.2c-3.4-3.4-3.4-9 0-12.5l409.9-409.9c5.5-5.5 5.8-14.6 0.3-20.1-2.8-2.7-6.4-4-10-4z"  horiz-adv-x="1024" />

    
    <glyph glyph-name="address" unicode="&#58902;" d="M896-128h-665.6c-56.556 0-102.4 45.844-102.4 102.4v184.32h-102.4v51.2h102.4v153.6h-102.4v51.2h102.4v143.36h-102.4v51.2h102.4v184.32c0 56.556 45.844 102.4 102.4 102.4h665.6c56.556 0 102.4-45.844 102.4-102.4v-819.2c0-56.556-45.844-102.4-102.4-102.4zM363.52 179.2c-10.24 163.84 112.64 215.040 112.64 215.040h184.32c112.64-23.040 112.64-215.040 112.64-215.040-225.28-130.56-409.6 0-409.6 0zM568.32 414.72c-62.208 0-112.64 50.432-112.64 112.64s50.432 112.64 112.64 112.64 112.64-50.432 112.64-112.64-50.432-112.64-112.64-112.64z"  horiz-adv-x="1024" />

    
    <glyph glyph-name="report1" unicode="&#58966;" d="M996.202 26.764h-899.879c-17.713 0-32.065 13.188-32.065 29.608v711.758c0 16.42-14.352 29.608-32.065 29.608s-32.194-13.188-32.194-29.608v-741.236c0-32.711 28.832-59.345 64.259-59.345h931.943c17.713 0 32.065 13.188 32.065 29.608s-14.352 29.608-32.065 29.608M996.202 26.764zM160.582 264.016h63.741c11.119-0.388 22.109 4.655 28.315 13.964l68.267 100.978 97.487-202.085c4.137-8.663 12.283-14.481 21.463-16.679 16.679-4.267 34.133 4.525 39.305 19.911l131.749 398.093 96.065-290.263c2.974-13.576 15.903-23.79 31.418-23.79h160.582c2.844 0 5.43 0.388 8.016 0.905 10.861-18.23 31.935-30.642 56.242-30.642 35.426 0 64.259 26.505 64.259 59.345s-28.962 59.216-64.388 59.216c-24.178 0-45.253-12.412-56.242-30.642-2.586 0.646-5.172 0.905-8.016 0.905h-136.533l-120.76 364.606c-5.172 15.644-23.143 24.436-40.081 19.653-5.947-1.681-10.861-4.784-14.739-8.792-3.103-3.103-5.56-6.982-6.982-11.248l-137.309-415.030-86.756 180.105c-1.552 3.749-3.879 7.111-6.982 10.085-0.129 0.129-0.388 0.259-0.517 0.388l-0.517 0.517c-9.18 8.016-23.014 10.602-35.168 5.56-6.982-2.844-12.283-7.758-15.515-13.576l-89.341-132.267h-47.063c-17.713 0-32.065-13.317-32.065-29.608-0.129-16.291 14.352-29.608 32.065-29.608M160.582 264.016z"  horiz-adv-x="1028" />

    
    <glyph glyph-name="zhuyishixiang_f" unicode="&#59037;" d="M511.172 830.623c-246.84 0-446.96-200.102-446.96-446.96s200.12-446.96 446.96-446.96c246.84 0 446.96 200.102 446.96 446.96s-200.119 446.96-446.96 446.96z m2.235-177.264c29.61 0 53.635-23.971 53.635-53.617 0-29.612-24.025-53.619-53.635-53.619-29.612 0-53.635 24.007-53.635 53.619 0 29.646 24.023 53.617 53.635 53.617z m72.177-518.44H442.557v35.757h35.757V474.609h-35.757v35.757h107.27v-339.69h35.757v-35.757z"  horiz-adv-x="1024" />

    
    <glyph glyph-name="duigou1" unicode="&#58910;" d="M425.301333 148.07039999999995S703.624533 684.782933 1024 896c-39.458133-101.239467-25.1904-290.747733 0-391.7824-156.194133-35.6352-477.320533-436.360533-581.4272-632.149333C295.1168 59.050666999999976 122.88 179.88266699999997 0 245.89653299999998l168.891733 161.450667 256.341334-259.413333"  horiz-adv-x="1024" />

    
    <glyph glyph-name="shouqi_icon_gaoliang" unicode="&#58896;" d="M0-128h1024v146.285714H0v-146.285714z m292.571429 292.571429L0 384l292.571429 219.428571v-438.857142z m146.285714 0h585.142857V310.857143H438.857143v-146.285714zM0 896v-146.285714h1024V896H0z m438.857143-438.857143h585.142857V603.428571H438.857143v-146.285714z"  horiz-adv-x="1024" />

    
    <glyph glyph-name="dianhua" unicode="&#58903;" d="M468.3 340.3C412 396.6 358.2 461.8 384 487.5c36.9 36.9 69 59.6 3.7 140.9-65.3 81.3-108.9 18.9-144.7-16.9-41.2-41.2-2.2-194.9 149.8-346.9C544.7 112.9 698.4 73.8 739.6 115c35.8 35.7 98.2 79.3 16.9 144.6-81.3 65.4-104 33.2-140.9-3.7-25.8-25.6-91 28.2-147.3 84.4z"  horiz-adv-x="1024" />

    
    <glyph glyph-name="weixin" unicode="&#59068;" d="M767.096471 865.882353H256.903529A226.785882 226.785882 0 0 1 30.117647 639.096471v-510.192942A226.785882 226.785882 0 0 1 256.903529-97.882353h510.192942A226.785882 226.785882 0 0 1 993.882353 128.903529V639.096471A226.785882 226.785882 0 0 1 767.096471 865.882353zM512 126.945882a375.868235 375.868235 0 0 0-102.881882 14.21553c-9.577412-1.746824-18.944-4.517647-27.888942-8.342588l-63.156705-39.634824c-18.672941-12.528941-24.786824-7.800471-18.221177 14.155294l14.034824 49.54353a79.119059 79.119059 0 0 1-2.590118 29.123764c-76.167529 50.808471-125.289412 129.807059-125.289412 218.262588 0 152.756706 146.462118 277.383529 325.993412 277.38353 109.507765 0 206.727529-46.381176 265.878588-117.187765L474.021647 420.141176c-20.931765-12.589176-41.863529-15.239529-62.825412 3.97553l-48.459294 43.580235c-22.106353 6.595765-29.967059-0.451765-23.552-21.142588L391.529412 318.464c11.745882-19.245176 29.153882-25.660235 58.940235-3.975529L802.936471 529.167059a242.597647 242.597647 0 0 0 35.026823-124.867765c0-152.786824-146.432-277.383529-325.963294-277.383529z"  horiz-adv-x="1024" />

    
    <glyph glyph-name="liebiao" unicode="&#58955;" d="M289.76014222222227 362.81002666666666h635.1166577777776v-103.18279111111111H289.76014222222227V362.81002666666666z m0 289.15939555555553h635.1166577777776v-103.18279111111111H289.76014222222227V651.9694222222222z m0-578.3916088888889h635.1166577777776v-103.25560888888889H289.76014222222227v103.25560888888889zM99.1960177777778 651.9694222222222h127.06702222222223v-103.18279111111111H99.1960177777778V651.9694222222222z m0-289.15939555555553h127.06702222222223v-103.18279111111111H99.1960177777778V362.81002666666666z m0-289.23221333333333h127.06702222222223v-103.25560888888889H99.1960177777778v103.25560888888889z"  horiz-adv-x="1024" />

    
    <glyph glyph-name="printlabel" unicode="&#58894;" d="M851.31150222 364.00014222000004h-46.65571555c-17.664 0-32 14.30414222-32 32s14.336 32 32 32h46.65571555c35.29614222 0 64 28.70385778 64 64V736c0 35.29614222-28.70385778 64-64 64H159.98407111c-35.29614222 0-64-28.70385778-64-64v-243.99985778c0-35.29614222 28.70385778-64 64-64h48.57628444c17.664 0 32-14.30414222 32-32s-14.336-32-32-32h-48.57628444c-70.56042667 0-128 57.40771555-128 128V736c0 70.59228445 57.43957333 128 128 128h691.32743111c70.59228445 0 128-57.40771555 128-128v-243.99985778c0-70.59228445-57.40771555-128-128-128zM766.17272889-83.06346667000003h-64.31971556c-17.664 0-32 14.30414222-32 32s14.336 32 32 32h64.31971556a6.50012445 6.50012445 0 0 1 6.49557333 6.49557334V593.60824889H240.57173333v-606.17614222c0-3.584 2.91157333-6.49557333 6.46371556-6.49557334h285.56856889c17.664 0 32-14.30414222 32-32s-14.336-32-32-32H247.03544889c-38.84828445 0-70.46371555 31.61543111-70.46371556 70.49557334V625.60824889c0 17.69585778 14.30414222 32 32 32h596.09656889c17.664 0 32-14.30414222 32-32v-638.17614222c0-38.88014222-31.61543111-70.49557333-70.49557333-70.49557334zM844.33009778 593.62531555H166.98595555c-17.664 0-32 14.30414222-32 32s14.336 32 32 32h677.34414223c17.664 0 32-14.30414222 32-32s-14.336-32-32-32zM556.33009778 429.59303111H353.67367111c-17.69585778 0-32 14.30414222-32 32s14.30414222 32 32 32h202.65642667c17.664 0 32-14.30414222 32-32s-14.336-32-32-32zM657.65603555 292.53176888999997H353.65546667c-17.664 0-32 14.30414222-32 32s14.336 32 32 32h304.00056888c17.664 0 32-14.30414222 32-32s-14.336-32-32-32zM657.65603555 155.46823111000003H353.65546667c-17.664 0-32 14.30414222-32 32s14.336 32 32 32h304.00056888c17.664 0 32-14.30414222 32-32s-14.336-32-32-32z"  horiz-adv-x="1024" />

    
    <glyph glyph-name="xitong" unicode="&#58939;" d="M528.9672333333332 429.26025000000004l66.6225 67.1202-89.99865 90.70949999999999-66.64665-67.1433c-15.624 8.79585-32.19615 16.0986-49.7889 21.1008v94.62285000000001H261.83883333333335v-94.62285000000001c-17.165399999999998-4.907700000000001-33.33435-12.0204-48.62655-20.50755l-71.34015 71.86200000000001-91.8015-92.48924999999998 71.316-71.8851c-8.41575-15.410849999999998-15.4812-31.6995-20.34165-48.982499999999995H7.158183333333304v-128.31314999999998h93.8868c4.9791-17.710350000000002 12.23355-34.4253 20.958-50.16795l-66.64455-67.1433 90.0459-90.71055 66.6456 67.16745c15.624-8.79585 32.1972-16.0986 49.7889-21.12495v-94.62180000000001h127.31670000000001v94.62180000000001c17.165399999999998 4.907700000000001 33.31125 12.0204 48.604499999999994 20.5086l71.33909999999999-71.88614999999999 91.8246 92.51235-71.34015 71.83785c8.440949999999999 15.410849999999998 15.506400000000001 31.722599999999996 20.36685 48.982499999999995h93.8637V379.02195000000006h-93.8637c-5.0032499999999995 17.78175-12.234599999999999 34.4967-20.9832 50.23935zM325.4740833333334 207.96120000000008c-58.60889999999999 0-106.1214 47.915699999999994-106.1214 106.9509 0 59.05935 47.512499999999996 106.9278 106.1214 106.9278 58.60785 0 106.1214-47.8926 106.1214-106.9278-0.02415-59.035199999999996-47.512499999999996-106.9509-106.1214-106.9509z m689.73975 331.49865v85.54140000000001h-62.970600000000005c-3.31905 11.712749999999998-8.084999999999999 22.76085-13.822199999999999 33.1926l44.666999999999994 44.999849999999995-60.054750000000006 60.481049999999996-44.429700000000004-44.7615c-10.3845 5.878950000000001-21.43365 10.7394-33.1695 14.0826v63.08925H760.5573333333332v-63.08925c-11.42715-3.2718-22.214850000000002-8.013599999999999-32.3862-13.7046L680.6103333333333 767.2080000000001l-61.2171-61.66649999999999 47.797050000000006-48.153c-5.54715-10.195500000000001-10.218599999999999-20.98215-13.419-32.41035h-62.9475v-85.54140000000001h62.9475c3.31905-11.7117 8.084999999999999-22.784999999999997 13.84635-33.2157l-44.666999999999994-44.976749999999996 60.00645-60.5052 44.45385 44.810849999999995c10.3845-5.879999999999999 21.43365-10.7646 33.14535-14.1078v-63.08925h84.8778V431.418c11.4282 3.2718 22.238999999999997 8.013599999999999 32.38725 13.70355l47.58285-47.93984999999999 61.2171 61.69065-47.797050000000006 48.153c5.523 10.218599999999999 10.218599999999999 20.9832 13.419 32.41035h62.970600000000005z m-212.21865-28.49805c-39.0957 0-70.7469 31.911599999999996-70.7469 71.26875000000001s31.651199999999996 71.26875000000001 70.7469 71.26875000000001c39.02535 0 70.72379999999998-31.911599999999996 70.72379999999998-71.26875000000001s-31.6995-71.26875000000001-70.72379999999998-71.26875000000001z"  horiz-adv-x="1024" />

    
    <glyph glyph-name="zhuanhuan" unicode="&#58925;" d="M383.8 676.3V821.2s0.5 7.6-14.9 11.2c-12.6 2.7-24.8-5.8-24.8-5.8-5.4-4-256.6-181.3-256.6-181.3S63.7 633.2 63.7 609c0-23.3 17.1-33.2 17.1-33.2l257.9-176.4s16.2-5.8 30.2-3.1c14.9 3.1 14.9 13.9 14.9 13.9v136H635s198-26.5 198-99.6c0 0-3.2 229.8-204.3 229.8H383.8z m256.6-583.8v-144.9s2.7-9 18.9-10.8c10.8-1.3 17.6 4 19.8 5.8 5.4 3.6 257 181.3 257 181.3S960 136 960 160.3c0 23.8-17.1 33.2-17.1 33.2L684.6 369.8s-10.8 6.3-25.3 2.7c-18-4.5-18.9-13.9-18.9-13.9v-135.5H387.9s-198 26.5-198 99.6c0 0 3.2-229.8 204.7-229.8l245.8-0.4z"  horiz-adv-x="1024" />

    
    <glyph glyph-name="sousuo" unicode="&#59072;" d="M983.6650666666667 13.272533333333286L842.8192 154.11839999999995c149.13066666666666 198.84159999999997 99.41973333333334 480.53226666666666-91.13493333333332 621.3781333333334C577.6992 908.0576 329.14666666666665 891.4869333333334 171.73013333333336 734.0714666666667c-173.98506666666665-173.98506666666665-173.98506666666665-455.67786666666666 0-629.6629333333333 157.41653333333335-157.41653333333335 397.68213333333335-173.98506666666665 579.9541333333333-41.425066666666666l140.84586666666667-140.84586666666667c24.8544-24.8544 66.28053333333332-24.8544 91.13493333333332 0 24.8544 16.5696 24.8544 57.995733333333334 0 91.13493333333332z m-248.55146666666667 149.13066666666666c-66.28053333333332-66.28053333333332-157.41653333333335-107.7056-256.83626666666663-107.7056s-190.5557333333333 41.425066666666666-256.83626666666663 107.7056c-140.84586666666667 140.84586666666667-140.84586666666667 372.82666666666665 0 513.6725333333333s372.82666666666665 140.84586666666667 513.6725333333333 0 140.84586666666667-372.82666666666665 0-513.6725333333333z"  horiz-adv-x="1024" />

    
    <glyph glyph-name="tiaogui" unicode="&#59073;" d="M376.1195872194194 355.5108495213915c17.646482914923457-17.646482914923457 46.453989211935244-17.646482914923457 63.9496474865602 0 1.0557724820894374 1.0557724820894374 2.111544964178875 2.262369604477366 3.1673174462683122 3.468966726865295 6.7871088134320985 7.993705935820025 11.01019874178985 18.249781476117416 11.01019874178985 29.41080485820576V755.7994448735868c0 24.886065649251027-20.361326440296295 45.24739208954733-45.24739208954733 45.24739208954733s-45.24739208954733-20.361326440296295-45.24739208954733-45.24739208954733v-259.87085523430017l-57.16253867312812 57.16253867312812c-17.646482914923457 17.646482914923457-46.453989211935244 17.646482914923457-63.9496474865602 0-17.646482914923457-17.646482914923457-17.646482914923457-46.453989211935244 0-63.9496474865602l133.4798066641646-133.6306313044631zM600.6974766238727 342.23828117512403c24.886065649251027 0 45.24739208954733 20.361326440296295 45.24739208954733 45.24739208954733V647.3565284989717l57.16253867312812-57.16253867312812c17.646482914923457-17.646482914923457 46.453989211935244-17.646482914923457 63.9496474865602 0 17.646482914923457 17.646482914923457 17.646482914923457 46.453989211935244 0 63.9496474865602L633.5772482089437 787.7742686168671c-17.646482914923457 17.646482914923457-46.453989211935244 17.646482914923457-63.9496474865602 0-1.0557724820894374-1.0557724820894374-2.111544964178875-2.262369604477366-3.1673174462683122-3.468966726865295-6.7871088134320985-7.993705935820025-11.01019874178985-18.249781476117416-11.01019874178985-29.41080485820576v-367.40882376712426c0-24.886065649251027 20.361326440296295-45.24739208954733 45.24739208954733-45.24739208954733zM996.008858846218 494.2695185960034c0 28.958330937310286-23.6794685268631 52.78862410447187-52.78862410447187 52.78862410447187-28.958330937310286 0-52.78862410447187-23.830293167161592-52.78862410447187-52.78862410447187v-299.9902095536987H120.17017263288021V494.2695185960034c0 28.958330937310286-23.830293167161592 52.78862410447187-52.78862410447187 52.78862410447187s-52.78862410447187-23.830293167161592-52.78862410447187-52.78862410447187v-343.1260566790672c-0.6032985611939643-3.1673174462683122-0.9049478417909465-6.485459532835118-0.9049478417909465-9.80360161940192 0-28.958330937310286 23.6794685268631-52.78862410447187 52.78862410447187-52.78862410447187h876.5928094148303c28.958330937310286 0 52.78862410447187 23.6794685268631 52.78862410447187 52.78862410447187v0.15082464029849108 352.77883365817064z"  horiz-adv-x="1024" />

    
    <glyph glyph-name="xiala" unicode="&#59074;" d="M534.1 286.5c-6-6-13.3-9-22-9s-16.3 3-23 9l-149 149c-6 6-9 13.7-9 23 0 4 1 7.8 3 11.8 5.3 13.3 15 19.8 29 19.8h298c14 0 23.7-6.4 29-19.8s3-24.9-7-34.9l-149-148.9z"  horiz-adv-x="1024" />

    
    <glyph glyph-name="shuaxin" unicode="&#59075;" d="M856.3513737625326 167.5206593064505c-72.1731994811642-113.97528144282207-199.35414117612555-189.6307762940567-344.21494472105906-189.6307762940567-224.8283507233973 0-407.091958777883 182.26025324199048-407.091958777883 407.0886039653878 0 224.83058726506079 182.262489783654 407.091958777883 407.091958777883 407.091958777883 157.33846948560335 0 293.81559660490495-89.26485087363574 361.5861638214682-219.9068407928642l103.05648504161216 0.6441239990881712C902.4666263222514 756.4434553269318 722.4395599312662 886.0141417893435 512.1375473123053 886.0141417893435 235.4270213498529 886.0141417893435 11.104129042406782 661.7046687318783 11.104129042406782 384.9796052486132c0-276.72394521243336 224.32401057827792-501.0300634574033 501.0345365407303-501.0300634574033 179.81459493295256 0 337.5478140221638 94.73655005338995 425.92587612622157 237.02868549779305 47.612617203432414 76.66417514147338-41.89713498235665 109.47759615752238-81.71204967599421 46.54243201744738zM966.1968810237006 604.1819354174747H746.9967873965028c-25.9371736716164 0-46.97520282933474-21.039147428550095-46.97520282933474-46.97072974600774 0-25.932700588289396 21.038029157718345-46.972966287671255 46.97520282933474-46.972966287671255H966.1968810237006c25.932700588289396 0 46.971848016839495 21.040265699381845 46.971848016839495 46.972966287671255 0 25.931582317457647-21.040265699381845 46.97072974600774-46.971848016839495 46.97072974600774zM966.1968810237006 823.3842655863364c-25.932700588289396 0-46.971848016839495-21.039147428550095-46.971848016839495-46.972966287671255v-219.20009362719807c0-25.932700588289396 21.040265699381845-46.972966287671255 46.971848016839495-46.972966287671255s46.971848016839495 21.040265699381845 46.971848016839495 46.972966287671255V776.4112992986652c0 25.933818859121143-21.040265699381845 46.972966287671255-46.971848016839495 46.972966287671255z"  horiz-adv-x="1024" />

    
    <glyph glyph-name="tuiku" unicode="&#59076;" d="M74.43241885030704 96.07885461925252c-28.610085602919177 0-51.88357492757364 23.421728110161816-51.88357492757364 51.88357492757364V494.2482324920029c0 28.461846817411825 23.27348932465446 51.88357492757364 51.88357492757364 51.88357492757364 28.461846817411825 0 51.88357492757364-23.27348932465446 51.88357492757364-51.88357492757364v-346.28580294517724c0-28.461846817411825-23.421728110161816-51.88357492757364-51.88357492757364-51.88357492757364zM473.1947518650873 729.9479014486944c17.34393790436033 17.34393790436033 45.6575459362648 17.34393790436033 62.853245055117775 0l255.41542742916968-255.41542742916968c17.34393790436033-17.34393790436033 17.34393790436033-45.6575459362648 0-62.853245055117775-17.34393790436033-17.34393790436033-45.6575459362648-17.34393790436033-62.853245055117775 0L473.1947518650873 667.0946563935767c-17.34393790436033 17.19569911885297-17.34393790436033 45.50930715075745 0 62.853245055117775zM535.3068029926678 729.9479014486944c17.34393790436033-17.34393790436033 17.34393790436033-45.6575459362648 0-62.853245055117775L280.0396143490061 411.6792289644073c-17.34393790436033-17.34393790436033-45.6575459362648-17.34393790436033-62.853245055117775 0-17.34393790436033 17.34393790436033-17.34393790436033 45.6575459362648 0 62.853245055117775l255.41542742916968 255.41542742916968c17.19569911885297 17.34393790436033 45.36106836525009 17.34393790436033 62.70500626961042 0zM948.0035818451399 96.07885461925252c-28.610085602919177 0-51.88357492757364 23.421728110161816-51.88357492757364 51.88357492757364V494.2482324920029c0 28.461846817411825 23.421728110161816 51.88357492757364 51.88357492757364 51.88357492757364s51.88357492757364-23.27348932465446 51.88357492757364-51.88357492757364v-346.28580294517724c0-28.461846817411825-23.27348932465446-51.88357492757364-51.88357492757364-51.88357492757364zM986.9903824335735 147.5177131903041c0-28.610085602919177-23.421728110161816-51.88357492757364-51.88357492757364-51.88357492757364H73.39474735175565c-28.461846817411825 0-51.88357492757364 23.421728110161816-51.88357492757364 51.88357492757364s23.27348932465446 51.88357492757364 51.88357492757364 51.88357492757364h861.5638213687373c28.610085602919177 0 52.03181371308099-23.27348932465446 52.03181371308099-51.88357492757364z"  horiz-adv-x="1024" />

    
    <glyph glyph-name="xiaoxitixing" unicode="&#59077;" d="M514.4272592592592-119.17084444444436c-81.67727407407408 0-149.6405333333333 57.89013333333333-162.26228148148144 133.49925925925925H142.0856888888889c-39.44296296296296 0-71.60414814814814 31.190281481481477-71.60414814814814 69.66234074074075 0 37.98660740740741 30.219377777777776 67.96325925925926 69.29825185185184 69.54097777777777 12.136296296296294 12.985837037037037 23.42305185185185 84.34725925925926 23.42305185185185 152.79597037037038V428.6615703703703c0 151.46097777777777 94.6631111111111 291.9992888888889 231.92462222222224 346.8553481481482 1.3349925925925925 61.773748148148144 53.76379259259259 111.65392592592592 117.9648 111.65392592592592 63.958281481481485 0 116.26571851851851-49.63745185185185 117.9648-111.28983703703703 139.20331851851853-52.91425185185185 231.92462222222224-191.0253037037037 231.92462222222224-347.34079999999994v-123.66885925925926c0-67.72053333333332 11.286755555555555-138.23241481481483 23.78714074074074-151.46097777777777 38.22933333333334-1.3349925925925925 68.93416296296296-32.03982222222222 68.93416296296296-69.66234074074075 0-38.47205925925926-32.16118518518518-69.66234074074075-71.60414814814814-69.66234074074075H676.6895407407408c-12.621748148148148-75.36639999999998-80.70637037037038-133.25653333333332-162.26228148148144-133.25653333333332z m-110.80438518518517 133.37789629629629c12.014933333333335-47.57428148148148 57.16195555555556-83.13362962962962 110.80438518518517-83.13362962962962 53.64242962962963 0 98.66808888888889 35.559348148148146 110.80438518518517 83.13362962962962H403.6228740740741z m275.2512 50.36562962962963h205.4674962962963c11.650844444444443 0 21.238518518518518 8.61677037037037 21.238518518518518 19.29671111111111 0 10.558577777777776-9.46631111111111 19.29671111111111-21.238518518518518 19.29671111111111-59.10376296296296 0-71.60414814814814 109.71211851851852-71.60414814814814 201.8266074074074V428.6615703703703c0 138.83922962962964-83.98317037037036 260.80900740740736-209.1083851851852 303.6501333333333-22.20942222222222 7.76722962962963-22.816237037037038 40.413866666666664-22.816237037037038 40.77795555555556 0 35.0738962962963-30.340740740740742 63.715555555555554-67.59917037037037 63.715555555555554-37.258429629629624 0-67.59917037037037-28.64165925925926-67.59917037037037-63.715555555555554 0-21.9666962962963-6.796325925925926-35.437985185185184-20.14625185185185-40.04977777777778-124.63976296296296-43.690666666666665-211.77837037037037-168.93724444444442-211.77837037037037-304.37831111111103v-122.45522962962963c0-50.85108148148148-4.8545185185185185-171.84995555555554-49.75881481481482-197.4575407407407-6.068148148148147-3.519525925925926-12.74311111111111-5.33997037037037-19.6608-5.582696296296295-13.349925925925925 0-23.301688888888886-8.495407407407408-23.301688888888886-19.29671111111111 0-10.558577777777776 9.46631111111111-19.29671111111111 21.238518518518518-19.29671111111111h536.6670222222223z"  horiz-adv-x="1024" />

    
    <glyph glyph-name="xiugai" unicode="&#59078;" d="M958.5619294016265 818.1098714190089c-75.8019029691851 75.8019029691851-196.89816685014196 68.17501745483176-272.70006981932704 0L155.71549097235186 287.9635028090612l-7.626885514353327-15.098120303923928-121.25191460573959-371.07132788200664 378.69821339635996 83.27313775875568 560.4982599425781 552.8713744282246c75.8019029691851 75.8019029691851 75.8019029691851 204.5250523644952-7.471234789570604 280.1713046088977z m-719.5733006705187-734.6714209744428h-68.17501745483176l45.450011636554514 128.7231493953102 83.27313775875568-7.626885514353327c30.351891332630583 0 60.54813194047842-30.351891332630583 60.54813194047842-60.54813194047842l7.626885514353327-83.27313775875568-136.35003490966352-30.351891332630583 7.626885514353327 53.07689715090784z m181.80004654621806 128.87880012009296c0 30.351891332630583-22.725005818277257 60.54813194047842-60.54813194047842 60.54813194047842l-90.90002327310903 7.626885514353327 393.7963337002839 393.7963337002839 166.7019262422941-159.0750407279408-401.42321921463736-401.42321921463736-7.626885514353327 98.52690878746233zM913.1119177650719 591.0154639610188l-30.351891332630583-30.351891332630583-166.54627551751136 166.54627551751136 30.351891332630583 30.351891332630583c45.450011636554514 45.450011636554514 121.25191460573959 45.450011636554514 166.7019262422941 0 45.29436091177179-37.82312612220118 45.29436091177179-113.62502909138627-0.15565072478272093-166.54627551751136z"  horiz-adv-x="1024" />

    
    </font>
</defs>
</svg>
